<svg viewBox="0 0 252 314" fill="none" xmlns="http://www.w3.org/2000/svg">
<g clip-path="url(#clip0_838_1901)">
<path d="M79.2547 215.277C76.7552 213.032 74.0399 210.795 71.5861 208.279C70.6468 207.324 69.6491 205.556 69.9489 204.509C70.2645 203.435 72.0191 202.289 73.2961 202.079C77.7709 201.321 82.2874 200.836 86.8216 200.521C88.5953 200.391 89.4906 199.662 90.4167 198.316C93.4907 193.776 96.5902 189.253 99.8565 184.886C100.65 183.81 102.474 182.495 103.363 182.766C104.533 183.125 105.753 184.819 106.064 186.159C106.917 189.829 107.425 193.602 107.886 197.363C108.094 199.097 107.828 199.637 110.517 199.707C113.535 199.788 116.571 199.756 119.569 200.124C120.619 200.249 122.093 201.167 122.412 202.071C122.751 202.97 122.275 204.754 121.535 205.405C118.498 208.045 115.279 210.467 111.995 212.795C110.743 213.673 110.171 214.392 110.329 216.007C111.059 222.793 111.614 229.575 112.215 236.368C112.267 236.964 112.766 241.26 110.328 241.805C109.277 242.05 108.287 242.28 106.356 240.707C101.285 236.279 96.349 231.689 91.4863 227.038C90.2023 225.815 89.2577 225.492 87.6105 226.353C83.8961 228.325 80.102 230.141 76.2634 231.859C75.3169 232.275 73.9128 233.34 72.9682 232.082C72.2371 231.274 72.7982 229.948 73.1776 229.056C75.0759 224.507 77.1377 220.007 79.2547 215.277ZM104.121 204.258C99.9228 204.43 96.0547 204.525 92.1994 204.77C91.6393 204.791 90.9181 205.241 90.592 205.708C88.5658 208.679 86.6255 211.738 84.6074 214.837C86.3872 216.509 87.8462 218.017 89.4778 219.333C89.964 219.742 91.0702 219.919 91.614 219.641C95.7739 217.435 99.8687 215.136 103.924 212.759C104.442 212.464 104.975 211.58 104.954 211.02C104.82 208.856 104.45 206.703 104.121 204.258ZM107.551 235.844C106.852 229.095 106.238 223.087 105.607 216.823C101.533 219.117 97.765 221.232 93.6703 223.531C98.3259 227.665 102.678 231.522 107.551 235.844ZM102.191 188.385C99.3547 192.544 96.9233 196.108 94.1974 200.089C97.6197 199.945 100.507 199.839 103.626 199.701C103.149 195.965 102.698 192.527 102.191 188.385ZM85.9068 204.907C82.0185 205.289 78.7424 205.594 74.7256 205.984C77.3377 208.246 79.3985 210.006 81.4895 211.801C82.944 209.551 84.2513 207.508 85.9068 204.907ZM116.347 203.937C113.907 204.005 111.467 204.072 108.878 204.152C109.119 206.031 109.319 207.549 109.575 209.489C112.204 207.617 116.432 204.113 116.347 203.937ZM78.909 225.289C79.0504 225.43 83.8994 223.477 86.4202 222.261C85.025 220.934 83.9079 219.867 82.6032 218.649C81.2585 221.092 80.094 223.188 78.909 225.289Z" fill="#ECE0D8"/>
<path d="M61.8092 275.796C58.9251 275.075 56.0601 274.437 53.2392 273.615C49.7025 272.612 49.0146 270.12 51.8319 267.748C54.7744 265.261 57.96 262.977 61.2985 261.071C62.9835 260.092 64.6044 258.65 64.6044 258.65C64.6044 258.65 65.1604 256.087 65.2669 255.236C65.7151 251.742 66.5632 248.285 67.3748 244.858C68.2589 241.088 70.8137 240.298 73.5505 243.096C75.7723 245.361 77.6599 247.965 79.8601 250.605C83.2422 249.167 86.7893 247.69 90.3219 246.152C92.0027 245.435 94.0512 244.524 95.1204 246.319C95.8347 247.522 95.7146 249.81 95.0504 251.16C93.5291 254.339 91.595 257.331 89.5703 260.214C88.3291 261.981 88.2216 263.201 89.5209 265.051C92.1037 268.775 94.4313 272.711 96.6146 276.681C97.213 277.759 97.4478 279.704 96.8684 280.577C96.2685 281.456 94.3749 282.005 93.145 281.856C88.3125 281.262 83.4734 280.453 78.6943 279.434C76.6833 279.01 75.6528 279.533 74.5224 281.121C71.7361 285.029 68.8736 288.889 65.8236 292.597C65.0587 293.514 63.7385 294.473 62.2976 294.351C61.049 294.403 60.8152 292.088 60.8388 290.974C60.9879 286.006 61.429 281.079 61.8092 275.796ZM66.4137 272.791C68.8343 273.294 70.9407 273.847 73.0975 274.15C73.7482 274.238 74.7614 273.828 75.1858 273.317C77.4138 270.56 79.5402 267.74 81.5856 264.852C81.964 264.33 82.4804 263.84 81.8011 262.694C80.6778 260.76 79.3008 258.95 77.8917 256.909C74.7052 258.628 71.6645 260.226 68.7192 261.954C68.185 262.273 67.9342 262.223 67.667 263.785C67.1369 266.646 66.8418 269.584 66.4137 272.791ZM78.9162 275.34C83.0965 275.933 86.826 276.457 91.1602 277.058C88.8584 273.42 86.9464 270.431 84.8594 267.156C82.852 269.926 81.0392 272.412 78.9162 275.34ZM68.6598 256.556C71.1519 255.216 73.1002 254.154 75.3022 252.969C73.8025 250.818 72.4888 248.907 70.7331 246.402C69.9728 250.144 69.3698 253.066 68.6598 256.556ZM65.0004 285.877C65.1433 285.931 69.4334 280.826 71.6059 278.017C69.5646 277.557 67.8869 277.165 65.9838 276.738C65.6478 279.967 65.3162 282.935 65.0004 285.877ZM85.2184 258.509C86.7837 256.081 88.3601 253.606 89.9935 251.097C87.5662 252.248 85.123 253.424 82.4577 254.674C83.5216 256.165 84.4455 257.429 85.2184 258.509ZM63.4799 264.845C60.5255 266.814 58.2256 268.327 55.4218 270.196C58.117 270.851 60.1932 271.368 62.4694 271.904C62.7942 269.655 63.0797 267.611 63.4799 264.845Z" fill="#ECE0D8"/>
<path d="M40.2996 213.465C43.6568 211.359 46.8711 209.199 50.2096 207.293C51.1893 206.739 53.0038 206.317 53.5662 206.773C54.8229 207.785 54.7777 209.273 54.4223 210.269C52.7671 215.022 50.9023 219.715 48.8899 224.334C48.0631 226.2 47.9162 227.625 49.041 229.472C50.9865 232.605 52.7292 235.895 54.2706 239.253C54.796 240.392 55.0102 242.341 54.38 243.183C53.7657 244 51.8304 244.276 50.5909 244.086C47.6041 243.672 44.6326 242.95 41.7293 242.147C39.8482 241.628 38.7779 242.072 37.5699 243.7C35.4641 246.515 33.0534 249.141 30.5727 251.652C28.4421 253.799 26.6502 253.476 26.2237 250.706C26.0037 249.106 25.6773 247.421 25.6175 245.762C25.5352 243.912 25.5811 239.902 25.4536 239.541C22.743 239.193 19.8914 238.986 17.1122 238.437C15.925 238.191 14.218 237.393 13.9913 236.511C13.696 235.428 14.3166 233.61 15.188 232.777C18.2346 229.896 26.7253 223.227 26.7253 223.227C27.0732 220.517 27.2069 215.857 27.4675 213.144C27.7502 210.34 28.0329 207.536 28.387 204.759C28.5281 203.683 29.3093 202.089 30.1039 201.86C30.9603 201.618 32.5594 202.42 33.2081 203.247C35.6504 206.461 37.8328 209.866 40.2996 213.465ZM29.7402 236.197C32.0447 236.574 34.0207 236.941 36.014 237.194C36.5266 237.249 37.3499 237.145 37.5557 236.814C39.2759 234.024 40.9151 231.165 42.5131 228.316C42.6555 228.087 42.5659 227.608 42.4163 227.339C41.0399 224.877 39.6476 222.44 38.2155 219.926C35.6845 221.753 33.4767 223.288 31.3596 224.932C30.751 225.4 30.0907 226.205 30.0331 226.892C29.819 229.898 29.8254 232.917 29.7402 236.197ZM45.4318 222.921C47.285 218.926 50.1104 211.728 49.9071 211.601C47.3555 213.433 44.7785 215.249 42.1334 217.146C43.1963 219.007 44.1494 220.677 45.4318 222.921ZM30.3401 220.453C32.5699 218.826 34.3212 217.571 36.1976 216.201C34.6543 213.582 33.2064 211.093 31.4134 208.054C31.038 212.423 30.7092 216.151 30.3401 220.453ZM41.2803 238.252C44.1722 238.819 46.7212 239.313 49.7305 239.917C48.0679 237.066 46.6948 234.712 45.1913 232.17C43.8158 234.294 42.6668 236.083 41.2803 238.252ZM26.0583 228.772C23.4294 230.927 21.295 232.683 18.6091 234.873C21.5101 235.198 23.6271 235.423 25.8313 235.649C25.8944 233.396 25.9674 231.467 26.0583 228.772ZM29.1989 246.864C29.4386 246.96 33.158 243.14 35.0297 240.814C32.9142 240.501 31.3874 240.291 29.6354 240.046C29.487 242.493 29.3429 244.678 29.1989 246.864Z" fill="#ECE0D8"/>
</g>
<path fill-rule="evenodd" clip-rule="evenodd" d="M82.1777 20.4923C59.9344 26.1511 46.4899 48.7701 52.1485 71.0135L11.873 81.2597L22.1217 121.545C22.4114 121.464 22.7026 121.387 22.9954 121.313C45.2388 115.654 67.8581 129.098 73.5168 151.342C79.1756 173.585 65.7311 196.204 43.4877 201.863C43.1949 201.938 42.902 202.009 42.6092 202.077L52.8576 242.361L93.1362 232.114C93.1747 232.273 93.2143 232.433 93.2549 232.592C98.9137 254.836 121.533 268.28 143.776 262.621C166.02 256.963 179.464 234.343 173.805 212.1C173.765 211.94 173.723 211.782 173.681 211.623L213.959 201.376L203.712 161.101C203.631 161.122 203.55 161.143 203.468 161.163C181.225 166.822 158.606 153.378 152.947 131.134C147.288 108.891 160.733 86.2717 182.976 80.6129C183.058 80.5922 183.139 80.5717 183.221 80.5514L172.974 40.2752L132.699 50.5212C127.04 28.2779 104.421 14.8335 82.1777 20.4923Z" fill="#FF9447"/>
<path d="M204.923 148.775C204.269 155.234 203.798 160.621 203.145 165.982C202.778 168.911 201.575 171.448 198.281 172.154C195.535 172.729 192.684 171.212 191.037 167.839C189.442 164.596 188.291 161.118 187.088 157.692C183.61 147.86 178.249 139.126 171.607 131.15C169.541 128.665 167.501 126.181 165.122 123.304C164.599 125.057 164.18 126.469 163.762 127.881C159.316 143.231 157.799 158.869 158.479 174.795C158.689 179.947 158.087 185.203 157.355 190.328C156.884 193.623 155.655 196.971 151.68 197.703C148.83 198.226 146.006 195.872 144.28 191.584C143.129 188.707 142.371 185.647 141.325 182.719C140.749 181.071 139.912 179.528 139.154 177.802C129.557 189.465 136.879 227.933 149.667 233.555C149.719 223.252 154.452 214.727 160.048 206.673C167.972 195.271 172.287 182.666 173.725 168.963C173.83 167.944 174.039 166.897 174.222 165.904C175.111 161.249 177.02 160.491 180.498 163.942C182.747 166.165 184.735 168.911 186.042 171.761C192.527 185.726 195.221 200.213 190.828 215.433C190.331 217.107 189.206 219.46 190.043 220.663C191.508 222.494 193.809 219.356 194.306 218.074C195.613 214.701 196.424 211.17 197.47 207.692C198.124 205.522 198.516 203.142 199.693 201.259C200.608 199.795 202.595 197.991 203.955 198.121C205.367 198.252 207.329 200.266 207.799 201.835C211.251 213.524 209.63 224.22 198.856 233.294C193.312 237.975 186.487 239.491 179.504 240.407C171.633 241.427 163.866 241.74 155.969 239.936C152.203 239.073 148.281 238.498 146.006 237.661C143.73 236.824 141.795 235.124 140.88 233.712C129.243 215.747 127.334 196.814 135.519 176.965C137.219 172.86 140.488 171.997 143.364 175.396C145.483 177.907 146.685 181.28 148.019 184.418C148.934 186.615 149.431 188.995 150.059 191.296C150.843 194.173 151.994 194.617 152.779 194.12C153.746 193.833 154.321 190.355 154.217 186.877C154.034 181.15 154.138 175.396 153.537 169.722C151.785 153.09 155.838 137.504 161.748 122.232C163.213 118.414 164.886 117.944 168.024 120.611C180.89 131.516 190.174 144.8 194.384 161.327C195.038 163.838 195.247 166.662 198.437 168.65C198.751 166.218 199.013 164.204 199.3 162.217C200.033 157.3 200.503 152.332 201.602 147.52C202.282 144.617 204.295 144.016 206.413 146.108C209.185 148.854 211.905 151.887 213.709 155.313C220.43 168.127 222.731 182.039 222.679 196.369C222.627 207.64 220.535 218.571 215.357 228.639C213.605 232.065 210.65 234.889 208.139 237.896C207.015 239.256 204.452 238.812 205.629 235.778C205.733 235.517 205.864 235.203 206.047 234.941C215.775 221.892 216.743 206.62 216.874 191.244C216.978 178.979 215.2 166.95 209.473 155.862C208.27 153.587 206.727 151.547 204.923 148.775ZM203.511 202.41C201.968 207.535 200.765 211.772 199.379 215.982C198.281 219.303 196.607 222.311 193.312 223.958C189.494 225.893 185.781 223.749 185.571 219.46C185.493 217.708 185.571 215.904 185.911 214.204C188.579 200.553 187.323 187.321 181.989 174.481C181.073 172.285 179.74 170.271 178.406 167.865C177.935 168.65 177.595 171.5 177.543 172.729C177.203 182.039 176.157 191.244 171.267 199.455C168.338 204.345 165.043 209.026 161.853 213.785C158.322 219.094 155.184 224.586 154.034 230.966C153.249 235.334 153.589 235.543 157.773 236.615C166.638 238.864 175.32 237.426 183.976 235.7C193.835 233.738 199.98 227.253 203.641 218.31C205.655 213.419 205.08 208.346 203.511 202.41Z" fill="#ECE0D8"/>
<path d="M74.9862 44.3337C80.9364 37.3438 87.4618 30.6636 94.6729 24.9788C99.6941 21.0193 101.419 20.8202 104.184 20.0681C104.937 19.8691 105.6 19.4045 106.242 18.94C133.162 -0.0610018 167.47 13.41 174.106 46.9439C178.507 69.1965 167.16 91.2943 147.65 100.319C147.34 100.474 146.876 100.518 146.721 100.762C142.85 106.823 134.975 109.167 130.175 110.362C129.202 110.716 128.45 111.733 127.565 112.397C126.88 112.906 126.194 113.459 125.42 113.812C100.048 125.58 72.7742 109.831 66.8018 83.7736C65.9612 80.1017 62.2672 57.9375 74.9862 44.3337ZM127.831 98.9036C136.878 98.8594 142.784 97.3773 148.07 94.4796C173.508 80.5219 177.313 42.6084 154.928 24.094C142.098 13.4985 125.685 11.7068 111.263 21.8599C94.1199 33.9152 87.9042 58.6232 97.5043 77.2924C104.406 90.7192 115.355 98.1294 127.831 98.9036ZM136.48 104.633C137.586 104.235 137.74 103.947 137.563 103.814C137.563 103.814 137.099 103.814 136.325 103.836C116.417 105.341 101.442 97.4216 92.5715 79.5708C83.9005 62.1403 86.0019 45.0194 96.2434 28.6286C95.425 29.0267 94.7614 29.5134 94.1641 30.0664C80.3613 42.5641 76.2912 63.7329 84.2544 81.827C91.5982 98.5276 107.016 108.437 124.358 107.199C128.428 106.911 132.432 105.517 136.48 104.633ZM78.0166 47.2535C78.0387 46.6121 77.4415 47.4084 77.353 47.519C77.0433 47.9393 76.7336 48.3817 76.4682 48.8241C72.8184 54.9734 70.5401 61.6315 70.2304 68.7763C69.5004 85.0565 75.2074 98.5497 88.9881 107.752C98.1457 113.879 108.321 115.14 118.961 111.822C103.41 110.251 91.2886 103.04 83.1042 89.7238C74.9198 76.4519 73.6147 62.2066 78.0166 47.2535Z" fill="#ECE0D8"/>
<path d="M144.642 61.4323C147.694 61.5429 148.69 63.1356 147.694 66.0112C145.217 73.0895 138.249 76.5402 131.149 74.0628C126.946 72.5808 123.65 69.8821 121.372 66.0333C119.624 63.0692 120.398 61.366 123.827 61.1448C127.41 60.9015 141.302 61.2996 144.642 61.4323ZM143.956 64.883C137.851 64.883 131.901 64.883 125.884 64.883C131.989 71.9835 141.014 72.1163 143.956 64.883Z" fill="#ECE0D8"/>
<path d="M119.757 48.8903C119.779 52.341 116.461 55.482 112.833 55.4599C109.67 55.4378 107.458 52.5843 107.436 49.5539C107.392 46.5234 110.489 43.5372 113.895 43.4488C117.169 43.3382 119.757 45.7271 119.757 48.8903ZM113.121 46.7004C111.484 46.9658 110.975 48.5142 111.108 49.6866C111.285 51.3898 112.568 51.8101 113.364 51.8322C114.116 51.8543 115.598 51.1023 115.908 49.6423C116.306 48.1603 115.466 46.1474 113.121 46.7004Z" fill="#ECE0D8"/>
<path d="M162.028 49.8193C161.984 53.1594 159.617 55.6147 156.454 55.5926C153.048 55.5705 150.592 52.8055 150.703 49.1115C150.791 45.9041 153.18 43.4266 156.144 43.493C159.219 43.5815 162.072 46.634 162.028 49.8193ZM158.976 49.7308C158.976 48.0276 158.069 46.8773 156.653 46.8773C155.79 46.8773 154.33 47.5409 154.33 49.3548C154.33 52.5179 156.653 52.341 156.653 52.341C157.892 52.2967 158.976 51.788 158.976 49.7308Z" fill="#ECE0D8"/>
<defs>
<clipPath id="clip0_838_1901">
<rect width="121.934" height="121.934" fill="white" transform="translate(0 195.21) rotate(-13.0867)"/>
</clipPath>
</defs>
</svg>
