<svg viewBox="0 0 260 370" fill="none" xmlns="http://www.w3.org/2000/svg">
<g filter="url(#filter0_d_838_1890)">
<path d="M128.49 337.221C136.147 325.561 143.774 313.9 151.542 302.304C152.075 301.497 153.6 301.002 154.667 300.973C180.135 300.441 199.281 288.88 212.228 267.22C214.381 263.619 215.42 259.296 215.279 254.419C215.106 247.985 210.239 243.662 203.797 243.978C198.165 244.251 193.475 246.823 189.015 249.925C179.166 256.828 171.253 265.766 163.672 274.952C158.865 280.773 154.417 286.872 149.65 293.012C146.633 291.265 144.628 287.297 145.094 283.98C145.951 277.688 147.549 274.749 149.702 270.082C156.452 255.435 166.455 243.008 178.188 232.144C186.92 224.056 196.222 216.605 205.28 208.881C206.066 208.203 206.935 207.587 207.634 206.904C208.728 205.84 209.191 204.741 208.53 203.639C208.074 202.463 206.184 202.793 205.19 203.057C203.554 203.487 201.956 204.266 200.579 205.229C178.714 220.216 159.446 237.791 146.346 261.23C143.476 266.376 141.358 272.025 139.614 277.664C137.133 285.77 138.437 293.129 146.074 298.437C139.184 309.792 132.388 320.98 125.467 332.362C125.699 328.053 125.918 323.974 126.139 319.866C126.176 319.177 126.299 318.492 126.279 317.799C126.235 315.924 126.742 313.474 124.051 313.156C121.417 312.842 121.254 315.34 121.137 316.976C120.49 325.267 119.927 333.591 119.682 341.904C119.586 345.299 121.739 347.056 124.858 345.841C133.916 342.41 142.853 338.54 151.734 334.638C152.56 334.279 153.874 332.881 153.158 331.2C152.476 329.953 150.521 329.877 149.553 330.2C143.714 332.162 137.948 334.387 132.156 336.553C131.128 336.93 130.096 337.365 129.066 337.77C127.459 338.721 127.894 338.139 128.49 337.221ZM156.761 295.785C155.723 295.816 157.156 294.337 157.342 294.088C167.09 281.042 177.222 268.334 189.962 258.043C193.365 255.287 197.376 253.025 201.467 251.43C206.909 249.331 210.453 252.546 209.08 258.263C208.189 261.961 206.746 265.772 204.618 268.914C195.631 282.288 178.981 292.427 167.425 294.63C163.003 295.429 161.797 295.364 156.761 295.785Z" fill="#ECE0D8"/>
<g filter="url(#filter1_d_838_1890)">
<path fill-rule="evenodd" clip-rule="evenodd" d="M26.3996 83.0725L70.6252 255.299L113.69 244.241C120.182 267.461 144.086 281.335 167.553 275.309C191.02 269.283 205.282 245.609 199.783 222.133L242.853 211.073L198.627 38.8463L155.369 49.9544C147.655 28.6935 124.9 16.3696 102.54 22.1113C80.1807 27.853 66.1785 49.6158 69.662 71.9632L26.3996 83.0725Z" fill="#9747FF"/>
</g>
<g clip-path="url(#clip0_838_1890)">
<path d="M169.68 164.702C170.513 164.033 171.24 163.452 171.98 162.895C177.264 158.846 183.026 160.739 184.982 167.195C186.92 173.508 185.7 179.547 183.061 185.347C176.695 199.291 165.374 208.261 152.309 215.327C148.699 217.265 146.201 216.232 145.132 212.302C140.88 196.626 138.719 180.732 142.174 164.66C143.041 160.564 145.338 156.332 148.133 153.18C154.394 146.08 164.402 148.328 167.735 157.196C168.639 159.528 169.007 162.06 169.68 164.702ZM150.491 209.685C153.834 207.37 156.579 205.535 159.26 203.582C167.76 197.379 174.604 189.715 178.155 179.732C179.403 176.165 179.483 171.976 179.153 168.164C178.901 165.169 176.752 164.775 174.723 167.079C172.948 169.061 171.746 171.529 169.971 173.51C169.02 174.582 167.316 175.849 166.2 175.66C165.143 175.468 164.098 173.551 163.699 172.202C163.196 170.604 163.469 168.797 163.275 167.091C162.987 164.423 162.961 161.673 162.172 159.156C160.526 153.943 155.3 152.863 152.09 157.224C150.065 159.987 148.476 163.434 147.811 166.775C145.053 181.084 147.967 195.094 150.491 209.685Z" fill="#ECE0D8"/>
<path d="M97.7503 142.893C98.7119 140.772 99.8715 137.775 101.412 134.969C104.718 128.928 111.031 128.002 115.848 132.837C120.153 137.182 122.253 142.608 122.832 148.68C124.031 160.954 122.631 173.079 120.88 185.181C120.344 188.759 116.99 190.773 113.664 189.179C108.754 186.821 103.92 184.207 99.4555 181.146C90.4148 174.931 81.9035 167.997 76.7805 157.986C75.3799 155.25 74.6913 151.848 74.7622 148.769C74.9169 142.636 80.1921 138.008 86.2356 139.01C90.616 139.722 94.7813 141.841 97.7503 142.893ZM114.537 183.912C114.982 180.169 115.649 176.888 115.748 173.579C116.062 165.147 116.628 156.67 116.062 148.258C115.79 144.383 114.826 140.365 111.362 136.942C109.562 135.16 107.978 135.072 106.401 137.191C104.11 140.253 104.114 143.751 104.351 147.338C104.491 149.565 106.146 152.316 103.411 153.777C100.629 155.264 99.0694 152.461 97.103 151.107C94.2953 149.169 91.5628 146.975 88.4539 145.723C86.679 145.002 83.3077 145.183 82.2879 146.353C80.967 147.872 80.6895 150.91 81.0575 153.104C81.4254 155.299 82.9014 157.442 84.3064 159.285C92.3338 169.892 103.119 176.998 114.537 183.912Z" fill="#ECE0D8"/>
<path d="M147.068 102.418C149.056 100.996 150.542 99.7242 152.186 98.7969C157.601 95.7201 162.496 97.3185 165.217 102.927C167.98 108.667 167.559 114.425 164.74 119.954C160.311 128.665 154.07 135.97 146.497 142.127C144.644 143.629 143.257 143.956 140.918 141.639C132.204 133.096 127.245 122.597 124.039 111.203C123.015 107.524 123.167 103.357 123.608 99.4927C124.114 95.0714 126.771 91.7796 131.426 90.7446C136.394 89.6623 140.333 91.5361 143.212 95.4624C144.733 97.5191 145.712 99.933 147.068 102.418ZM143.179 137.059C150.53 130.438 156.997 123.379 160.53 114.205C161.324 112.114 161.351 109.519 160.981 107.265C160.118 102.024 157.171 100.899 152.804 103.926C151.756 104.651 150.798 105.542 149.901 106.43C146.197 110.109 144.609 109.901 141.913 105.353C140.437 102.872 139.135 100.204 137.227 98.1132C133.862 94.4214 129.129 95.6522 128.47 100.525C128.004 104.004 128.333 107.817 129.252 111.246C131.849 120.792 137.798 128.601 143.179 137.059Z" fill="#ECE0D8"/>
</g>
<path d="M134.495 22.5987C134.441 24.8184 133.256 27.2539 132.169 29.3876C128.811 36.0904 125.24 42.7576 120.055 48.2596C111.589 57.3022 105.364 68.012 97.2868 77.3378C89.2093 86.6636 81.6978 96.4901 73.9785 106.099C70.3384 110.634 66.6991 115.14 63.1183 119.738C59.4114 124.515 54.4335 127.771 49.457 130.966C39.2564 137.532 28.3289 142.711 17.3444 147.737C17.0062 147.881 16.6391 147.963 16.3314 148.108C15.2841 148.63 14.1828 148.877 13.3886 147.762C12.5943 146.647 13.3456 145.783 13.9775 144.825C14.5768 143.957 20.4837 126.333 23.3793 118.645C25.5585 112.887 28.1292 107.291 31.0002 101.854C32.4049 99.1503 34.8316 96.9581 36.8074 94.5419C50.7626 77.5099 64.6881 60.4467 78.7627 43.5089C81.9288 39.6918 85.6608 36.3753 89.0354 32.7458C90.4408 31.2589 91.5778 29.5524 92.9239 28.0032C98.2127 21.9864 104.066 16.5311 110.628 11.945C115.767 8.32824 121.266 7.39766 127.004 10.3978C131.932 12.9217 134.545 16.8191 134.495 22.5987ZM96.322 32.1327C78.6489 53.1509 61.0076 74.109 43.115 95.3957C44.3009 95.4247 44.9988 95.5026 45.6699 95.4277C46.4939 95.3261 47.3231 95.0117 48.1463 94.9405C51.652 94.661 53.3643 96.8022 52.2792 100.122C51.8171 101.602 51.1133 103.015 50.5303 104.461C49.7552 106.298 48.9809 108.105 48.1406 110.123C48.7813 110.047 49.0543 110.084 49.2093 109.966C50.479 109.054 51.7198 108.08 52.9902 107.138C54.2599 106.225 55.5007 105.252 56.8594 104.433C58.1877 103.614 59.6213 103.466 60.9035 104.532C62.0664 105.503 62.096 106.782 61.7274 108.172C61.427 109.26 61.3083 110.383 61.1295 111.474C79.2202 89.5535 97.8411 68.3455 114.73 45.8173C108.543 41.2545 102.447 36.7244 96.322 32.1327ZM56.6774 113.13C53.8985 114.797 51.5163 116.412 48.9583 117.749C47.0783 118.737 44.9082 119.141 43.1825 117.547C41.3678 115.86 42.0576 113.777 42.9268 111.821C43.5068 110.496 44.1172 109.172 44.7573 107.88C45.7178 105.926 46.768 104.034 47.6981 102.079C48.0185 101.418 48.1283 100.66 48.3938 99.7537C43.6347 101.524 39.2449 103.12 34.8848 104.748C32.6203 111.508 30.3871 118.238 28.2205 124.727C30.9534 127.441 33.3888 129.873 35.8843 132.338C41.5913 129.131 47.1744 126.011 52.788 122.893C53.0965 122.718 53.4354 122.544 53.7736 122.4C55.6203 121.532 56.3301 119.876 56.5571 118.056C56.7478 116.479 56.6343 114.894 56.6774 113.13ZM125.53 32.1462C126.635 29.2524 127.758 26.8762 128.459 24.3376C129.058 22.2225 128.96 19.9991 127.547 18.0782C125.515 15.3207 122.786 13.7024 119.456 12.9821C116.52 12.3628 111.979 16.4201 111.454 16.742C116.166 21.8772 120.552 26.6698 125.53 32.1462ZM105.407 22.6489C110.663 27.9496 115.594 32.8468 120.672 37.9605C121.428 36.9141 122.025 36.1072 122.939 34.8212C117.884 30.0123 112.949 25.2976 107.746 20.3329C107.247 20.8379 106.405 21.6693 105.407 22.6489ZM99.3361 28.3119C105.612 32.9377 111.559 37.3425 117.506 41.7472C117.631 41.6286 117.725 41.5092 117.85 41.3905C112.62 36.2731 107.39 31.1556 101.922 25.8193C100.957 26.7389 100.084 27.5695 99.3361 28.3119Z" fill="#ECE0D8"/>
</g>
<defs>
<filter id="filter0_d_838_1890" x="9.49575" y="8.604" width="249.952" height="360.494" filterUnits="userSpaceOnUse" color-interpolation-filters="sRGB">
<feFlood flood-opacity="0" result="BackgroundImageFix"/>
<feColorMatrix in="SourceAlpha" type="matrix" values="0 0 0 0 0 0 0 0 0 0 0 0 0 0 0 0 0 0 127 0" result="hardAlpha"/>
<feOffset dy="3.54917"/>
<feGaussianBlur stdDeviation="1.77458"/>
<feComposite in2="hardAlpha" operator="out"/>
<feColorMatrix type="matrix" values="0 0 0 0 0 0 0 0 0 0 0 0 0 0 0 0 0 0 0.25 0"/>
<feBlend mode="normal" in2="BackgroundImageFix" result="effect1_dropShadow_838_1890"/>
<feBlend mode="normal" in="SourceGraphic" in2="effect1_dropShadow_838_1890" result="shape"/>
</filter>
<filter id="filter1_d_838_1890" x="0.101768" y="5.54847" width="248.546" height="288.106" filterUnits="userSpaceOnUse" color-interpolation-filters="sRGB">
<feFlood flood-opacity="0" result="BackgroundImageFix"/>
<feColorMatrix in="SourceAlpha" type="matrix" values="0 0 0 0 0 0 0 0 0 0 0 0 0 0 0 0 0 0 127 0" result="hardAlpha"/>
<feOffset dx="-10.252" dy="0.891479"/>
<feGaussianBlur stdDeviation="8.02331"/>
<feComposite in2="hardAlpha" operator="out"/>
<feColorMatrix type="matrix" values="0 0 0 0 0 0 0 0 0 0 0 0 0 0 0 0 0 0 0.5 0"/>
<feBlend mode="normal" in2="BackgroundImageFix" result="effect1_dropShadow_838_1890"/>
<feBlend mode="normal" in="SourceGraphic" in2="effect1_dropShadow_838_1890" result="shape"/>
</filter>
<clipPath id="clip0_838_1890">
<rect width="155.276" height="155.276" fill="white" transform="translate(29.8359 125.464) rotate(-28.6123)"/>
</clipPath>
</defs>
</svg>
