<svg width="1em" height="1em" viewBox="0 0 48 48" fill="none"
    xmlns="http://www.w3.org/2000/svg">
    <g clip-path="url(#clip0_684_2331)">
        <path d="M23.6101 3.93799C12.7411 3.93799 3.93945 12.7593 3.93945 23.6284C3.93945 34.4975 12.7411 43.3188 23.6101 43.3188C34.4989 43.3188 43.3202 34.4975 43.3202 23.6284C43.3202 12.7593 34.4989 3.93799 23.6101 3.93799ZM23.6298 39.3807C14.9267 39.3807 7.87753 32.3315 7.87753 23.6284C7.87753 14.9252 14.9267 7.87606 23.6298 7.87606C32.333 7.87606 39.3821 14.9252 39.3821 23.6284C39.3821 32.3315 32.333 39.3807 23.6298 39.3807Z" fill="currentColor"/>
        <path d="M24.6137 13.7832H21.6602V25.5974L31.9976 31.7999L33.4744 29.378L24.6137 24.1207V13.7832Z" fill="currentColor"/>
    </g>
    <defs>
        <clipPath id="clip0_684_2331">
            <rect width="47.2569" height="47.2569" fill="currentColor"/>
        </clipPath>
    </defs>
</svg>
