<svg width="1em" height="1em" viewBox="0 0 103 103" fill="none"
	xmlns="http://www.w3.org/2000/svg">
	<g clip-path="url(#clip0_1177_3342)">
		<path d="M86.5199 17.697C80.0056 14.708 73.02 12.5058 65.7162 11.2445C65.5832 11.2202 65.4503 11.281 65.3818 11.4027C64.4834 13.0006 63.4882 15.0852 62.7914 16.7236C54.9356 15.5475 47.1201 15.5475 39.4254 16.7236C38.7284 15.0487 37.6972 13.0006 36.7947 11.4027C36.7262 11.2851 36.5933 11.2243 36.4603 11.2445C29.1605 12.5018 22.1749 14.704 15.6566 17.697C15.6002 17.7214 15.5518 17.762 15.5197 17.8146C2.26954 37.6101 -1.36023 56.919 0.420414 75.9885C0.428471 76.0818 0.480843 76.1711 0.553359 76.2278C9.29544 82.6478 17.7636 86.5453 26.0746 89.1286C26.2076 89.1692 26.3485 89.1206 26.4332 89.011C28.3991 86.3263 30.1516 83.4955 31.6542 80.5186C31.7429 80.3442 31.6582 80.1374 31.477 80.0684C28.6973 79.014 26.0504 77.7283 23.5043 76.2684C23.3029 76.1508 23.2868 75.8627 23.4721 75.7248C24.0079 75.3233 24.5438 74.9056 25.0554 74.4838C25.148 74.4068 25.2769 74.3905 25.3858 74.4392C42.1125 82.076 60.2211 82.076 76.7504 74.4392C76.8593 74.3865 76.9882 74.4028 77.0848 74.4798C77.5966 74.9016 78.1324 75.3233 78.6722 75.7248C78.8575 75.8627 78.8454 76.1508 78.644 76.2684C76.0979 77.7567 73.451 79.014 70.6673 80.0644C70.486 80.1334 70.4054 80.3442 70.4941 80.5186C72.0289 83.4913 73.7814 86.3222 75.7111 89.007C75.7917 89.1206 75.9367 89.1692 76.0697 89.1286C84.4209 86.5453 92.8891 82.6478 101.631 76.2278C101.708 76.1711 101.756 76.0858 101.764 75.9926C103.895 53.9461 98.1947 34.7956 86.6528 17.8187C86.6245 17.762 86.5763 17.7214 86.5199 17.697ZM34.152 64.3772C29.1162 64.3772 24.9667 59.7539 24.9667 54.076C24.9667 48.398 29.0357 43.7747 34.152 43.7747C39.3086 43.7747 43.4178 48.4386 43.3372 54.076C43.3372 59.7539 39.2682 64.3772 34.152 64.3772ZM68.1131 64.3772C63.0774 64.3772 58.928 59.7539 58.928 54.076C58.928 48.398 62.9968 43.7747 68.1131 43.7747C73.2698 43.7747 77.3789 48.4386 77.2984 54.076C77.2984 59.7539 73.2698 64.3772 68.1131 64.3772Z" fill="currentColor"/>
	</g>
	<defs>
		<clipPath id="clip0_1177_3342">
			<rect width="102.206" height="102.206" fill="white"/>
		</clipPath>
	</defs>
</svg>
