<svg width="357" height="95" viewBox="0 0 357 95" fill="none" xmlns="http://www.w3.org/2000/svg">
<path d="M76.2834 82.645C89.6034 82.645 98.4834 73.405 98.4834 60.865C98.4834 48.325 89.9034 39.565 76.2834 39.565H59.4834V82.645H76.2834ZM70.8234 49.345H75.6234C83.0034 49.345 86.8434 53.245 86.8434 60.865C86.8434 68.965 83.1234 72.865 75.6234 72.865H70.8234V49.345ZM124.046 83.545C136.526 83.545 146.306 74.125 146.306 61.045C146.306 47.965 136.526 38.665 124.046 38.665C111.626 38.665 101.846 47.965 101.846 61.045C101.846 74.125 111.626 83.545 124.046 83.545ZM124.046 73.405C117.266 73.405 113.486 67.825 113.486 61.045C113.486 54.265 117.266 48.805 124.046 48.805C130.826 48.805 134.606 54.265 134.606 61.045C134.606 67.825 130.826 73.405 124.046 73.405ZM171.679 82.645H181.039L190.339 57.505V82.645H200.599V39.565H187.219L176.419 68.785L165.559 39.565H152.179V82.645H162.439V57.805L171.679 82.645ZM237.095 82.645H249.335L233.555 39.565H221.135L205.175 82.645H216.635L219.335 74.665H234.455L237.095 82.645ZM227.015 52.045L231.515 65.725H222.395L227.015 52.045ZM265.237 82.645V39.565H253.897V82.645H265.237ZM301.184 82.645H312.104V39.565H301.724V64.465L285.824 39.565H273.644V82.645H284.024V55.765L301.184 82.645ZM355.019 68.545C355.019 62.305 350.939 58.525 343.259 57.025L334.919 55.405C332.639 54.985 330.719 53.845 330.719 51.925C330.719 49.585 332.759 47.785 336.119 47.785C339.899 47.785 342.539 50.305 342.839 54.205H354.299C353.639 44.905 346.259 39.025 335.999 39.025C326.339 39.025 319.259 44.665 319.259 52.705C319.259 59.665 323.819 63.685 330.719 65.005L338.579 66.505C341.099 66.985 342.959 68.365 342.959 70.225C342.959 72.925 340.379 74.425 336.479 74.425C331.799 74.425 329.099 71.845 328.979 67.765H317.519C318.299 77.305 325.499 83.245 336.719 83.245C347.939 83.245 355.019 77.425 355.019 68.545Z" fill="#131313"/>
<g filter="url(#filter0_d_797_1664)">
<mask id="path-2-inside-1_797_1664" fill="white">
<path fill-rule="evenodd" clip-rule="evenodd" d="M41.1234 55.672L32.5176 50.7034L37.7971 41.5591L37.7997 41.5606C41.1658 43.504 45.4699 42.3507 47.4133 38.9846C49.3567 35.6186 48.2034 31.3144 44.8374 29.371L44.8347 29.3695L50.0859 20.2743L58.6946 25.2445C58.7274 25.1836 58.7612 25.123 58.796 25.0627C60.7394 21.6966 65.0436 20.5433 68.4096 22.4867C71.7757 24.4301 72.929 28.7343 70.9856 32.1003C70.9508 32.1607 70.9152 32.2202 70.8789 32.2791L79.4843 37.2474L74.2332 46.3426C70.8675 44.4014 66.5651 45.5549 64.6222 48.9201C62.6793 52.2853 63.8315 56.5881 67.1955 58.5322L61.916 67.6766L53.313 62.7096C51.3692 66.0746 47.0657 67.2274 43.7001 65.2842C40.3345 63.3411 39.1811 59.0378 41.1234 55.672Z"/>
</mask>
<path fill-rule="evenodd" clip-rule="evenodd" d="M41.1234 55.672L32.5176 50.7034L37.7971 41.5591L37.7997 41.5606C41.1658 43.504 45.4699 42.3507 47.4133 38.9846C49.3567 35.6186 48.2034 31.3144 44.8374 29.371L44.8347 29.3695L50.0859 20.2743L58.6946 25.2445C58.7274 25.1836 58.7612 25.123 58.796 25.0627C60.7394 21.6966 65.0436 20.5433 68.4096 22.4867C71.7757 24.4301 72.929 28.7343 70.9856 32.1003C70.9508 32.1607 70.9152 32.2202 70.8789 32.2791L79.4843 37.2474L74.2332 46.3426C70.8675 44.4014 66.5651 45.5549 64.6222 48.9201C62.6793 52.2853 63.8315 56.5881 67.1955 58.5322L61.916 67.6766L53.313 62.7096C51.3692 66.0746 47.0657 67.2274 43.7001 65.2842C40.3345 63.3411 39.1811 59.0378 41.1234 55.672Z" fill="#131313"/>
<path d="M32.5176 50.7034L30.6937 49.6504L29.6406 51.4743L31.4645 52.5273L32.5176 50.7034ZM41.1234 55.672L42.9475 56.7246L43.9999 54.9008L42.1764 53.848L41.1234 55.672ZM37.7971 41.5591L38.8501 39.7351L37.0262 38.6821L35.9732 40.506L37.7971 41.5591ZM37.7997 41.5606L38.8528 39.7367L37.7997 41.5606ZM44.8374 29.371L45.8904 27.5471L44.8374 29.371ZM44.8347 29.3695L43.0108 28.3164L41.9578 30.1404L43.7817 31.1934L44.8347 29.3695ZM50.0859 20.2743L51.1389 18.4503L49.315 17.3973L48.2619 19.2212L50.0859 20.2743ZM58.6946 25.2445L57.6415 27.0684L59.5192 28.1525L60.5483 26.2441L58.6946 25.2445ZM70.8789 32.2791L69.0863 31.1736L67.9482 33.019L69.8259 34.1031L70.8789 32.2791ZM79.4843 37.2474L81.3082 38.3005L82.3612 36.4766L80.5373 35.4235L79.4843 37.2474ZM74.2332 46.3426L73.1809 48.167L75.0045 49.2188L76.0571 47.3957L74.2332 46.3426ZM67.1955 58.5322L69.0194 59.5852L70.072 57.7621L68.2493 56.7087L67.1955 58.5322ZM61.916 67.6766L60.863 69.5005L62.6869 70.5536L63.7399 68.7296L61.916 67.6766ZM53.313 62.7096L54.366 60.8857L52.5425 59.8329L51.4893 61.6562L53.313 62.7096ZM31.4645 52.5273L40.0703 57.4959L42.1764 53.848L33.5706 48.8795L31.4645 52.5273ZM35.9732 40.506L30.6937 49.6504L34.3415 51.7564L39.621 42.6121L35.9732 40.506ZM38.8528 39.7367L38.8501 39.7351L36.744 43.383L36.7467 43.3845L38.8528 39.7367ZM45.5894 37.9316C44.2276 40.2903 41.2115 41.0985 38.8528 39.7367L36.7467 43.3845C41.1201 45.9095 46.7123 44.4111 49.2373 40.0377L45.5894 37.9316ZM43.7843 31.1949C46.1431 32.5567 46.9512 35.5728 45.5894 37.9316L49.2373 40.0377C51.7622 35.6643 50.2638 30.0721 45.8904 27.5471L43.7843 31.1949ZM43.7817 31.1934L43.7843 31.1949L45.8904 27.5471L45.8878 27.5456L43.7817 31.1934ZM48.2619 19.2212L43.0108 28.3164L46.6587 30.4225L51.9098 21.3273L48.2619 19.2212ZM59.7476 23.4206L51.1389 18.4503L49.0328 22.0982L57.6415 27.0684L59.7476 23.4206ZM56.9721 24.0096C56.9271 24.0876 56.8833 24.166 56.8408 24.2448L60.5483 26.2441C60.5715 26.2012 60.5953 26.1584 60.62 26.1157L56.9721 24.0096ZM69.4627 20.6628C65.0893 18.1378 59.4971 19.6363 56.9721 24.0096L60.62 26.1157C61.9818 23.757 64.9979 22.9488 67.3566 24.3107L69.4627 20.6628ZM72.8095 33.1534C75.3345 28.78 73.8361 23.1878 69.4627 20.6628L67.3566 24.3107C69.7153 25.6725 70.5235 28.6886 69.1617 31.0473L72.8095 33.1534ZM72.6715 33.3847C72.7185 33.3085 72.7645 33.2314 72.8095 33.1534L69.1617 31.0473C69.1371 31.0899 69.1119 31.132 69.0863 31.1736L72.6715 33.3847ZM80.5373 35.4235L71.9319 30.4552L69.8259 34.1031L78.4312 39.0714L80.5373 35.4235ZM76.0571 47.3957L81.3082 38.3005L77.6603 36.1944L72.4092 45.2896L76.0571 47.3957ZM66.4461 49.9732C67.8076 47.615 70.8225 46.8067 73.1809 48.167L75.2854 44.5182C70.9125 41.996 65.3226 43.4948 62.7983 47.8671L66.4461 49.9732ZM68.2493 56.7087C65.892 55.3464 65.0847 52.3313 66.4461 49.9732L62.7983 47.8671C60.274 52.2393 61.7709 57.8297 66.1417 60.3557L68.2493 56.7087ZM63.7399 68.7296L69.0194 59.5852L65.3716 57.4792L60.0921 66.6235L63.7399 68.7296ZM52.2599 64.5335L60.863 69.5005L62.969 65.8527L54.366 60.8857L52.2599 64.5335ZM42.6471 67.1081C47.0199 69.6328 52.6112 68.1351 55.1366 63.7631L51.4893 61.6562C50.1272 64.0142 47.1116 64.8219 44.7532 63.4603L42.6471 67.1081ZM39.2992 54.6193C36.7756 58.9924 38.2743 64.5835 42.6471 67.1081L44.7532 63.4603C42.3947 62.0987 41.5865 59.0832 42.9475 56.7246L39.2992 54.6193Z" fill="#ECE0D8" mask="url(#path-2-inside-1_797_1664)"/>
</g>
<defs>
<filter id="filter0_d_797_1664" x="2.70758" y="0.279511" width="88.3668" height="88.8023" filterUnits="userSpaceOnUse" color-interpolation-filters="sRGB">
<feFlood flood-opacity="0" result="BackgroundImageFix"/>
<feColorMatrix in="SourceAlpha" type="matrix" values="0 0 0 0 0 0 0 0 0 0 0 0 0 0 0 0 0 0 127 0" result="hardAlpha"/>
<feOffset dx="-9.11" dy="0.705342"/>
<feGaussianBlur stdDeviation="10.35"/>
<feComposite in2="hardAlpha" operator="out"/>
<feColorMatrix type="matrix" values="0 0 0 0 0 0 0 0 0 0 0 0 0 0 0 0 0 0 0.39 0"/>
<feBlend mode="normal" in2="BackgroundImageFix" result="effect1_dropShadow_797_1664"/>
<feBlend mode="normal" in="SourceGraphic" in2="effect1_dropShadow_797_1664" result="shape"/>
</filter>
</defs>
</svg>
