<svg viewBox="0 0 248 270" fill="none" xmlns="http://www.w3.org/2000/svg">
<path fill-rule="evenodd" clip-rule="evenodd" d="M220.238 194.32L175.947 29.0267L134.614 40.1021C128.132 17.8225 104.99 4.71193 82.4678 10.7467C59.9456 16.7815 46.4596 39.7065 51.9859 62.2421L10.6538 73.317L54.9441 238.611L96.4622 227.486C104.101 247.867 126.121 259.496 147.58 253.747C169.038 247.997 182.294 226.915 178.719 205.445L220.238 194.32Z" fill="black"/>
<path fill-rule="evenodd" clip-rule="evenodd" d="M234.238 194.32L189.947 29.0267L148.614 40.1021C142.132 17.8225 118.99 4.71193 96.4678 10.7467C73.9456 16.7815 60.4596 39.7065 65.9859 62.2421L24.6538 73.317L68.9441 238.611L110.462 227.486C118.101 247.867 140.121 259.496 161.58 253.747C183.038 247.997 196.294 226.915 192.719 205.445L234.238 194.32Z" fill="#FF5247"/>
<path d="M58.5052 42.3403C65.6518 50.2912 72.8052 58.2211 79.8828 66.2424C80.3767 66.7951 80.4453 68.0216 80.2584 68.8184C75.6806 87.7974 80.5105 104.244 94.0359 118.069C96.2843 120.368 99.2855 121.982 102.927 122.829C107.729 123.957 111.884 121.195 112.907 116.359C113.804 112.131 112.814 108.153 111.386 104.242C108.193 95.5944 103.113 87.9845 97.7854 80.5724C94.4102 75.8732 90.7583 71.3861 87.1388 66.6546C89.0225 64.7592 92.355 64.048 94.7222 65.0412C99.2182 66.9047 101.084 68.6633 104.123 71.1696C113.66 79.0327 120.917 88.872 126.678 99.6892C130.967 107.74 134.673 116.089 138.629 124.311C138.978 125.025 139.265 125.789 139.635 126.441C140.21 127.46 140.934 128.017 141.88 127.742C142.841 127.634 142.965 126.169 142.964 125.381C142.964 124.084 142.699 122.748 142.254 121.539C135.416 102.408 126.152 84.6963 111.339 70.4107C108.085 67.2791 104.312 64.6062 100.473 62.2129C94.9497 58.7913 89.241 58.3211 83.8158 62.945C76.7455 55.6209 69.7808 48.4002 62.6963 41.0484C65.8446 42.0613 68.825 43.0203 71.8265 43.986C72.3302 44.1481 72.8137 44.3731 73.3309 44.4932C74.729 44.8272 76.4462 45.6808 77.207 43.7484C77.9542 41.8579 76.1349 41.2494 74.9453 40.8435C68.9267 38.7449 62.867 36.7025 56.7539 34.8978C54.2569 34.1639 52.5338 35.4161 52.8254 37.9651C53.6 45.3481 54.7231 52.7275 55.8807 60.0717C55.9855 60.7539 56.7655 62.0008 58.151 61.7981C59.2081 61.536 59.6463 60.102 59.5963 59.3216C59.2821 54.6113 58.7587 49.9031 58.284 45.1875C58.2055 44.3516 58.0851 43.5022 57.9856 42.6596C57.5947 41.283 57.9409 41.7187 58.5052 42.3403ZM83.6949 71.3833C83.875 70.6074 84.6911 71.9586 84.8394 72.1453C92.6047 81.9166 100.045 91.9074 105.185 103.359C106.563 106.419 107.456 109.834 107.84 113.176C108.332 117.62 105.257 119.618 101.288 117.484C98.722 116.103 96.1788 114.289 94.2663 112.098C86.1088 102.826 81.845 88.5068 82.4691 79.5124C82.74 76.079 83.0236 75.1975 83.6949 71.3833Z" fill="#ECE0D8"/>
<g clip-path="url(#clip0_1024_2471)">
<path d="M193.346 142.237C195.688 141.479 197.401 140.918 199.107 140.376C205.99 138.162 212.904 135.979 219.767 133.696C221.41 133.155 223.051 132.36 224.411 131.329C225.201 130.702 225.831 129.33 225.739 128.377C225.689 127.815 224.063 126.998 223.153 127.021C220.942 127.044 218.709 127.332 216.546 127.791C209.801 129.252 203.076 130.845 196.074 132.453C196.667 128.782 197.331 125.155 197.792 121.505C198.154 118.683 198.326 115.8 198.422 112.956C198.492 111.111 197.955 109.322 195.828 108.953C193.625 108.559 192.402 110.012 191.834 111.907C190.105 117.542 188.497 123.194 186.806 128.841C186.415 130.185 185.949 131.504 185.521 132.835C185.25 132.958 183.976 130.785 183.403 129.698C178.504 120.399 173.592 111.138 168.593 101.89C167.897 100.595 166.886 99.3677 165.764 98.419C165.171 97.9135 163.811 97.7066 163.195 98.0542C162.58 98.4018 162.068 99.6645 162.177 100.434C162.376 101.904 162.916 103.358 163.549 104.716C167.668 113.765 171.838 122.787 175.982 131.823C176.441 132.81 176.888 133.835 177.561 135.332C172.878 133.448 168.683 131.678 164.44 130.061C155.889 126.827 147.295 123.663 138.726 120.487C138.2 120.296 137.629 120.113 137.142 120.061C133.954 119.728 133.26 122.799 135.382 123.902C137.967 125.258 140.535 126.735 143.22 127.914C152.849 132.103 162.514 136.178 172.16 140.31C172.363 140.397 172.529 140.534 173.102 140.907C169.671 142.175 166.506 143.339 163.346 144.484C157.373 146.676 151.362 148.792 145.44 151.084C143.855 151.707 142.317 152.703 141.065 153.853C139.732 155.061 140.216 156.623 141.98 156.75C144.142 156.879 146.46 156.722 148.525 156.106C158.591 153.133 168.597 149.951 178.622 146.839C179.743 146.486 180.864 146.133 182.508 145.591C181.404 150 180.384 153.953 179.44 157.931C176.638 169.769 173.837 181.606 171.074 193.456C170.778 194.767 170.609 196.14 170.598 197.48C170.573 199.319 171.359 200.789 173.246 201.249C175.02 201.673 176.401 200.837 177.232 199.299C178.019 197.832 178.685 196.283 179.174 194.698C182.376 184.354 185.515 174.01 188.68 163.653C188.906 162.886 189.163 162.151 189.585 160.839C190.191 161.957 190.622 162.704 191.022 163.483C195.485 172.181 199.942 180.897 204.424 189.601C204.927 190.581 205.525 191.592 206.342 192.317C206.897 192.81 208.044 193.158 208.667 192.918C209.29 192.677 209.765 191.592 209.979 190.926C210.633 188.828 209.811 187.535 209.207 186.019C205.658 177.091 201.995 168.189 198.282 159.313C196.941 156.111 195.354 153.02 193.539 149.204C198.503 151.451 202.789 153.46 207.123 155.316C211.293 157.099 215.512 158.729 219.731 160.422C220.175 160.607 220.675 160.684 221.112 160.761C223.384 161.199 222.895 158.481 222.316 158.127C218.342 155.673 214.317 153.244 210.2 151.038C205.295 148.474 194.396 143.016 193.346 142.237Z" fill="#ECE0D8"/>
</g>
<g clip-path="url(#clip1_1024_2471)">
<path d="M120.386 194.495C123.018 185.097 122.065 174.671 114.947 165.344C113.177 163.032 110.807 161.132 108.506 159.293C95.9037 149.225 75.2404 153.453 65.743 170.054C58.9906 181.853 58.5361 194.024 65.763 205.761C75.6014 221.748 97.146 223.968 110.782 210.72C115.002 206.595 118.032 201.734 120.386 194.495ZM83.4548 214.497C77.6472 212.641 73.3904 209.617 70.452 205.753C58.8912 190.525 65.2701 166.655 82.8951 159.188C90.9257 155.784 98.686 156.714 106.01 161.004C108.283 162.341 110.196 164.523 111.816 166.674C121.396 179.42 118.824 198.565 106.142 208.924C99.0949 214.691 91.1179 216.672 83.4548 214.497Z" fill="#ECE0D8"/>
<path d="M90.1986 207.041C90.2824 207.409 90.4119 207.792 90.4952 208.122C90.7055 208.96 90.842 209.282 91.7583 209.261C92.4907 209.105 92.6152 208.286 92.5912 207.811C92.5392 206.481 92.3352 205.152 92.0211 203.851C91.8978 203.331 91.6331 202.387 91.0141 202.465C90.5209 202.585 90.1639 202.634 90.1321 203.95C90.1271 204.201 90.1188 204.502 90.1154 204.905C86.816 205.422 83.8567 204.647 81.0895 202.961C77.0668 200.504 74.1287 195.934 73.1279 191.152C72.7114 189.149 72.8338 187.394 72.9665 185.175C72.9883 184.715 72.9076 183.906 73.1427 183.843C73.4575 183.767 73.8444 183.664 74.2737 183.625C75.1021 183.563 75.2102 182.992 75.1756 182.589C75.1227 181.89 74.6639 181.667 74.3405 181.651C72.4949 181.537 70.6353 181.545 68.7912 181.583C68.5365 181.59 68.1463 181.742 68.084 182.329C68.0258 182.942 68.3704 183.166 68.684 183.33C69.1697 183.588 69.7748 183.631 70.4801 183.794C70.3992 184.792 70.2808 185.827 70.2535 186.854C69.9985 194.832 72.9062 201.225 79.7857 205.561C82.5496 207.296 85.794 207.696 90.1986 207.041Z" fill="#ECE0D8"/>
<path d="M84.0638 173.776C84.3547 172.872 84.7978 171.966 84.8794 171.044C84.9303 170.454 84.913 169.527 84.1538 169.295C83.4174 169.071 82.6948 169.432 82.3684 169.857C80.2639 172.629 78.7751 175.725 78.1645 179.154C77.9152 180.047 78.6044 180.85 78.9936 180.975C79.6919 181.2 80.5412 180.955 80.9973 180.205C82.2311 178.176 84.1631 173.82 84.0638 173.776Z" fill="#ECE0D8"/>
<path d="M108.316 181.516C108.435 180.948 108.401 179.876 107.628 179.451C106.832 178.942 106.188 179.884 105.937 180.309C104.738 182.348 104.997 181.977 103.754 184.975C103.661 185.185 102.399 188.834 102.17 189.86C101.922 190.942 102.325 191.653 102.833 191.842C103.788 192.212 104.307 191.659 104.771 190.962C106.198 188.844 107.281 186.577 108.316 181.516Z" fill="#ECE0D8"/>
</g>
<defs>
<clipPath id="clip0_1024_2471">
<rect width="115.075" height="115.075" fill="white" transform="matrix(-0.95194 -0.306284 -0.306284 0.95194 247.428 114.39)"/>
</clipPath>
<clipPath id="clip1_1024_2471">
<rect width="69.2674" height="69.2674" fill="white" transform="matrix(-0.95194 -0.306284 -0.306284 0.95194 134.734 164.271)"/>
</clipPath>
</defs>
</svg>
