<svg width="1em" height="1em" viewBox="0 0 59 59" fill="none" xmlns="http://www.w3.org/2000/svg">
<g opacity="0.5" clip-path="url(#clip0_1025_2487)">
<path fill-rule="evenodd" clip-rule="evenodd" d="M29.4107 1.35425C22.5111 1.35783 15.8377 3.80154 10.5838 8.24842C5.32993 12.6953 1.83818 18.8554 0.732894 25.6272C-0.37239 32.3989 0.98086 39.3408 4.5507 45.2116C8.12054 51.0823 13.6742 55.4991 20.2185 57.6721C21.6623 57.9401 22.2061 57.0452 22.2061 56.2844C22.2061 55.5235 22.1773 53.3175 22.1676 50.9057C14.0824 52.6523 12.3739 47.4938 12.3739 47.4938C11.0553 44.1441 9.14944 43.2636 9.14944 43.2636C6.51211 41.474 9.34677 41.5075 9.34677 41.5075C12.268 41.7132 13.8033 44.4887 13.8033 44.4887C16.3925 48.9055 20.6035 47.6278 22.2591 46.8813C22.519 45.0103 23.2746 43.7374 24.1071 43.0148C17.6486 42.2875 10.8627 39.8087 10.8627 28.7356C10.8227 25.8638 11.8945 23.0867 13.8562 20.9786C13.5578 20.2513 12.5616 17.3131 14.1401 13.3222C14.1401 13.3222 16.5802 12.547 22.134 16.2843C26.8977 14.989 31.9237 14.989 36.6874 16.2843C42.2364 12.547 44.6716 13.3222 44.6716 13.3222C46.2549 17.3036 45.2587 20.2417 44.9603 20.9786C46.9283 23.087 48.0023 25.869 47.9586 28.7451C47.9586 39.8422 41.1583 42.2875 34.6901 43.0005C35.7297 43.9001 36.6585 45.6563 36.6585 48.3552C36.6585 52.2217 36.6248 55.3321 36.6248 56.2844C36.6248 57.0548 37.1494 57.9544 38.6221 57.6721C45.1672 55.4988 50.7214 51.0813 54.2911 45.2095C57.8609 39.3378 59.2135 32.3949 58.1069 25.6224C57.0004 18.85 53.5069 12.6899 48.2513 8.24378C42.9957 3.79766 36.3207 1.35556 29.4203 1.35425H29.4107Z" fill="#ECE0D8"/>
<path d="M11.3521 42.847C11.2895 42.9905 11.0585 43.0336 10.8708 42.9331C10.6831 42.8326 10.5436 42.646 10.611 42.4976C10.6783 42.3493 10.9045 42.311 11.0922 42.4115C11.2799 42.512 11.4243 42.7034 11.3521 42.847Z" fill="#ECE0D8"/>
<path d="M12.5339 44.1535C12.4342 44.2034 12.3202 44.2173 12.2113 44.1929C12.1024 44.1685 12.0055 44.1071 11.9371 44.0195C11.7494 43.8185 11.7109 43.541 11.8553 43.4165C11.9996 43.2921 12.2595 43.3495 12.4472 43.5505C12.6349 43.7515 12.6782 44.029 12.5339 44.1535Z" fill="#ECE0D8"/>
<path d="M13.6779 45.8143C13.4998 45.9388 13.1966 45.8143 13.0281 45.5655C12.9816 45.5209 12.9445 45.4673 12.9192 45.4081C12.8939 45.349 12.8809 45.2853 12.8809 45.221C12.8809 45.1566 12.8939 45.093 12.9192 45.0338C12.9445 44.9746 12.9816 44.9211 13.0281 44.8764C13.2062 44.7568 13.5094 44.8764 13.6779 45.1205C13.8463 45.3645 13.8511 45.6899 13.6779 45.8143V45.8143Z" fill="#ECE0D8"/>
<path d="M15.2312 47.4221C15.0724 47.5992 14.75 47.5513 14.4853 47.3121C14.2206 47.0728 14.158 46.7474 14.3168 46.5751C14.4756 46.4029 14.7981 46.4507 15.0724 46.6852C15.3467 46.9197 15.3997 47.2499 15.2312 47.4221V47.4221Z" fill="#ECE0D8"/>
<path d="M17.4121 48.3599C17.3399 48.5848 17.0126 48.6853 16.6854 48.5896C16.3581 48.4939 16.1416 48.2259 16.2041 47.9962C16.2667 47.7665 16.5988 47.6612 16.9308 47.7665C17.2629 47.8718 17.4747 48.1254 17.4121 48.3599Z" fill="#ECE0D8"/>
<path d="M19.7914 48.5225C19.7914 48.757 19.5219 48.958 19.1754 48.9628C18.8289 48.9675 18.5449 48.7761 18.5449 48.5417C18.5449 48.3072 18.8144 48.1062 19.1609 48.1014C19.5074 48.0966 19.7914 48.2833 19.7914 48.5225Z" fill="#ECE0D8"/>
<path d="M22.0054 48.1541C22.0487 48.3886 21.8081 48.6326 21.4616 48.69C21.1151 48.7475 20.8119 48.6087 20.7686 48.379C20.7252 48.1493 20.9755 47.9005 21.3124 47.8383C21.6493 47.7761 21.9621 47.9196 22.0054 48.1541Z" fill="#ECE0D8"/>
</g>
<defs>
<clipPath id="clip0_1025_2487">
<rect width="58.1271" height="58.1271" fill="white" transform="translate(0.345703 0.143066)"/>
</clipPath>
</defs>
</svg>
