<svg width="1em" height="1em" viewBox="0 0 59 59" fill="none" xmlns="http://www.w3.org/2000/svg">
<g opacity="0.5" clip-path="url(#clip0_1025_2479)">
<path d="M29.3722 5.37653C37.1376 5.37653 38.0572 5.41059 41.1111 5.54683C43.9493 5.67171 45.482 6.14853 46.5038 6.54589C47.8548 7.06812 48.8311 7.70389 49.8415 8.7143C50.8633 9.73607 51.4877 10.7011 52.0099 12.0521C52.4073 13.0738 52.8841 14.6178 53.009 17.4447C53.1452 20.51 53.1793 21.4296 53.1793 29.1837C53.1793 36.9491 53.1452 37.8687 53.009 40.9226C52.8841 43.7609 52.4073 45.2935 52.0099 46.3153C51.4877 47.6663 50.8519 48.6426 49.8415 49.653C48.8198 50.6748 47.8548 51.2992 46.5038 51.8215C45.482 52.2188 43.938 52.6956 41.1111 52.8205C38.0458 52.9568 37.1262 52.9908 29.3722 52.9908C21.6067 52.9908 20.6871 52.9568 17.6332 52.8205C14.795 52.6956 13.2623 52.2188 12.2405 51.8215C10.8895 51.2992 9.91319 50.6635 8.90278 49.653C7.88101 48.6313 7.2566 47.6663 6.73436 46.3153C6.33701 45.2935 5.86019 43.7495 5.7353 40.9226C5.59907 37.8573 5.56501 36.9377 5.56501 29.1837C5.56501 21.4183 5.59907 20.4987 5.7353 17.4447C5.86019 14.6065 6.33701 13.0738 6.73436 12.0521C7.2566 10.7011 7.89237 9.72471 8.90278 8.7143C9.92454 7.69253 10.8895 7.06812 12.2405 6.54589C13.2623 6.14853 14.8063 5.67171 17.6332 5.54683C20.6871 5.41059 21.6067 5.37653 29.3722 5.37653ZM29.3722 0.142822C21.4818 0.142822 20.4941 0.176881 17.3948 0.313117C14.3068 0.449352 12.1838 0.948882 10.3446 1.66412C8.42595 2.41341 6.80248 3.40112 5.19036 5.02459C3.56689 6.63671 2.57918 8.26018 1.82989 10.1675C1.11465 12.018 0.615123 14.1297 0.478888 17.2177C0.342653 20.3284 0.308594 21.3161 0.308594 29.2064C0.308594 37.0967 0.342653 38.0844 0.478888 41.1837C0.615123 44.2717 1.11465 46.3947 1.82989 48.2339C2.57918 50.1526 3.56689 51.776 5.19036 53.3882C6.80248 55.0003 8.42595 55.9993 10.3333 56.7373C12.1838 57.4525 14.2954 57.952 17.3834 58.0883C20.4828 58.2245 21.4705 58.2586 29.3608 58.2586C37.2511 58.2586 38.2388 58.2245 41.3382 58.0883C44.4262 57.952 46.5492 57.4525 48.3883 56.7373C50.2956 55.9993 51.9191 55.0003 53.5312 53.3882C55.1434 51.776 56.1424 50.1526 56.8804 48.2453C57.5956 46.3948 58.0951 44.2831 58.2314 41.1951C58.3676 38.0957 58.4017 37.108 58.4017 29.2177C58.4017 21.3274 58.3676 20.3397 58.2314 17.2404C58.0951 14.1524 57.5956 12.0294 56.8804 10.1902C56.1651 8.26018 55.1774 6.63671 53.5539 5.02459C51.9418 3.41247 50.3183 2.41341 48.4111 1.67547C46.5605 0.960235 44.4489 0.460705 41.3609 0.324469C38.2502 0.176881 37.2625 0.142822 29.3722 0.142822Z" fill="#ECE0D8"/>
<path d="M29.3705 14.2771C21.1283 14.2771 14.4414 20.964 14.4414 29.2062C14.4414 37.4485 21.1283 44.1354 29.3705 44.1354C37.6128 44.1354 44.2997 37.4485 44.2997 29.2062C44.2997 20.964 37.6128 14.2771 29.3705 14.2771ZM29.3705 38.8903C24.0233 38.8903 19.6865 34.5535 19.6865 29.2062C19.6865 23.859 24.0233 19.5222 29.3705 19.5222C34.7178 19.5222 39.0546 23.859 39.0546 29.2062C39.0546 34.5535 34.7178 38.8903 29.3705 38.8903Z" fill="#ECE0D8"/>
<path d="M48.377 13.687C48.377 15.617 46.8103 17.1724 44.8916 17.1724C42.9616 17.1724 41.4062 15.6057 41.4062 13.687C41.4062 11.757 42.973 10.2017 44.8916 10.2017C46.8103 10.2017 48.377 11.7684 48.377 13.687Z" fill="#ECE0D8"/>
</g>
<defs>
<clipPath id="clip0_1025_2479">
<rect width="58.1271" height="58.1271" fill="white" transform="translate(0.3125 0.143066)"/>
</clipPath>
</defs>
</svg>
