<svg width="1em" height="1em" viewBox="0 0 59 59" fill="none" xmlns="http://www.w3.org/2000/svg">
<g opacity="0.5" clip-path="url(#clip0_1025_2484)">
<path d="M53.8243 0.143066H4.29142C1.91865 0.143066 0 2.0163 0 4.33231V54.0696C0 56.3856 1.91865 58.2702 4.29142 58.2702H53.8243C56.1971 58.2702 58.1271 56.3856 58.1271 54.0809V4.33231C58.1271 2.0163 56.1971 0.143066 53.8243 0.143066ZM17.2451 49.676H8.61689V21.9294H17.2451V49.676ZM12.931 18.1488C10.1609 18.1488 7.92436 15.9123 7.92436 13.1535C7.92436 10.3948 10.1609 8.15825 12.931 8.15825C15.6898 8.15825 17.9263 10.3948 17.9263 13.1535C17.9263 15.901 15.6898 18.1488 12.931 18.1488ZM49.5329 49.676H40.916V36.1887C40.916 32.9758 40.8593 28.832 36.4316 28.832C31.9472 28.832 31.266 32.34 31.266 35.9616V49.676H22.6605V21.9294H30.9254V25.7213H31.039C32.1856 23.5415 35.0012 21.2369 39.1904 21.2369C47.9208 21.2369 49.5329 26.9814 49.5329 34.4517V49.676V49.676Z" fill="#ECE0D8"/>
</g>
<defs>
<clipPath id="clip0_1025_2484">
<rect width="58.1271" height="58.1271" fill="white" transform="translate(0 0.143066)"/>
</clipPath>
</defs>
</svg>
