<svg viewBox="0 0 419 425" fill="none" xmlns="http://www.w3.org/2000/svg">
<g filter="url(#filter0_d_1024_2500)">
<path d="M53.6329 305.266C68.9426 302.093 84.2308 298.896 99.5787 295.862C100.641 295.645 102.241 296.461 103.11 297.284C123.718 317.048 148.056 323.06 175.486 316.154C180.046 315.006 184.296 312.403 188.049 308.426C193.011 303.19 192.581 295.905 187.224 291.05C182.543 286.803 176.788 285.123 170.795 284.048C157.516 281.713 144.16 282.525 130.871 283.797C122.447 284.6 114.088 285.909 105.444 286.997C104.437 283.221 105.993 278.487 108.991 276.228C114.657 271.92 118.254 270.857 123.659 268.864C140.618 262.606 158.395 260.684 176.306 261.373C189.637 261.883 202.916 263.351 216.217 264.408C217.377 264.493 218.554 264.694 219.649 264.707C221.361 264.73 222.598 264.226 222.947 262.829C223.519 261.535 221.759 260.299 220.762 259.72C219.124 258.764 217.241 258.115 215.386 257.787C186.177 252.335 156.975 250.994 128.015 259.188C121.661 260.993 115.505 263.79 109.654 266.878C101.262 271.337 96.4633 278.203 98.3094 288.463C83.8478 292.002 69.5947 295.483 55.0875 299.019C58.6864 295.787 62.0933 292.728 65.5242 289.647C66.1 289.13 66.7405 288.685 67.2732 288.12C68.725 286.599 71.0684 285.058 69.1871 282.674C67.349 280.337 65.2401 282.188 63.851 283.392C56.7664 289.45 49.7224 295.602 42.9395 301.997C40.173 304.611 40.4859 307.71 43.9213 309.22C53.8201 313.679 63.971 317.695 74.1028 321.642C75.042 322.012 77.192 321.945 77.9563 320.046C78.4038 318.517 76.9148 316.907 75.8919 316.395C69.7091 313.323 63.375 310.516 57.0673 307.643C55.9534 307.126 54.7914 306.653 53.6535 306.158C51.6263 305.638 52.4318 305.521 53.6329 305.266ZM108.882 294.832C108.034 294.033 110.343 293.997 110.688 293.947C128.753 291.333 146.856 289.292 165.111 291.232C169.993 291.745 174.965 293.131 179.471 295.109C185.448 297.759 185.708 303.117 180.089 306.559C176.452 308.784 172.287 310.661 168.111 311.464C150.387 314.942 129.155 309.782 118.25 302.368C114.111 299.497 113.207 298.489 108.882 294.832Z" fill="#ECE0D8"/>
<path fill-rule="evenodd" clip-rule="evenodd" d="M164.982 13.7421L63.5292 185.301L106.424 210.667C93.1658 234.218 101.115 264.16 124.491 277.983C147.868 291.807 177.936 284.347 192.184 261.382L235.089 286.754L336.542 115.195L293.448 89.7111C304.184 66.7455 295.916 38.9425 273.644 25.7715C251.371 12.6004 223.024 18.7511 208.073 39.224L164.982 13.7421Z" fill="black"/>
<path fill-rule="evenodd" clip-rule="evenodd" d="M174.152 22.9115L72.6991 194.47L115.594 219.837C102.336 243.387 110.285 273.329 133.661 287.153C157.038 300.977 187.105 293.516 201.354 270.551L244.259 295.923L345.712 124.365L302.618 98.8806C313.354 75.9149 305.086 48.1119 282.814 34.9409C260.541 21.7699 232.194 27.9206 217.243 48.3935L174.152 22.9115Z" fill="#477BFF"/>
<path d="M223.017 201.174C224.207 201.303 225.244 201.419 226.272 201.564C233.669 202.543 236.735 208.61 233.168 215.278C229.702 221.817 223.948 225.637 217.259 228.142C201.162 234.149 185.08 232.285 169.124 227.53C164.726 226.205 163.564 223.407 165.832 219.444C174.887 203.65 185.772 189.339 201.249 179.339C205.183 176.779 210.358 175.246 215.071 174.963C225.661 174.298 231.812 184.012 227.424 193.683C226.292 196.247 224.577 198.546 223.017 201.174ZM172.154 221.618C176.638 222.433 180.269 223.154 183.942 223.73C195.596 225.551 207.094 224.901 217.821 219.804C221.638 217.965 225.021 214.708 227.781 211.426C229.955 208.852 228.564 206.837 225.13 207.055C222.152 207.219 219.243 208.222 216.266 208.386C214.663 208.481 212.308 208.135 211.573 207.1C210.887 206.111 211.578 203.763 212.332 202.378C213.2 200.712 214.849 199.496 216.047 197.99C217.933 195.647 220.092 193.448 221.461 190.827C224.288 185.39 221.002 180.392 215.001 181.305C211.207 181.89 207.215 183.362 204.04 185.483C190.513 194.639 181.718 208.052 172.154 221.618Z" fill="#ECE0D8"/>
<path d="M183.291 126.877C185.734 125.957 189.029 124.501 192.473 123.498C199.882 121.331 205.619 125.6 205.605 133.25C205.573 140.107 202.937 146.072 198.584 151.343C189.806 162.021 179.085 170.522 168.105 178.726C164.845 181.138 160.591 180.075 159.218 176.176C157.195 170.415 155.435 164.512 154.323 158.547C152.084 146.455 150.834 134.214 154.707 122.219C155.766 118.94 157.916 115.698 160.413 113.314C165.397 108.575 173.246 109.088 177.242 114.672C180.149 118.709 181.771 123.69 183.291 126.877ZM164.084 172.693C167.404 170.079 170.533 168.007 173.234 165.463C180.166 159.029 187.333 152.758 193.552 145.642C196.408 142.356 198.829 138.407 198.796 132.948C198.781 130.109 197.596 128.784 194.666 129.214C190.424 129.825 187.654 132.601 185 135.631C183.346 137.507 182.476 140.999 179.151 139.99C175.768 138.964 176.753 135.505 176.267 132.874C175.578 129.112 175.151 125.207 173.68 121.751C172.844 119.773 170.029 117.244 168.293 117.364C166.042 117.521 163.414 119.708 161.967 121.739C160.519 123.77 159.99 126.639 159.643 129.214C157.598 143.983 160.515 158.163 164.084 172.693Z" fill="#ECE0D8"/>
<path d="M254.459 133.884C257.162 134.333 259.348 134.503 261.386 135.071C268.117 136.924 270.729 142.071 268.441 148.673C266.081 155.412 261.184 159.642 254.568 161.79C244.152 165.184 233.416 166.027 222.533 164.905C219.875 164.627 218.516 163.787 218.499 160.096C218.363 146.419 222.754 134.167 229.244 122.595C231.348 118.867 234.772 115.685 238.184 112.972C242.089 109.868 246.804 109.365 251.314 112.235C256.109 115.314 257.747 119.922 256.916 125.315C256.492 128.151 255.354 130.84 254.459 133.884ZM223.921 158.258C234.995 158.838 245.716 158.368 255.787 153.897C258.073 152.868 260.152 150.834 261.646 148.754C265.116 143.916 263.671 140.688 257.81 139.626C256.405 139.37 254.94 139.317 253.525 139.31C247.673 139.29 246.58 137.866 248.048 132.125C248.844 128.989 249.927 125.843 250.071 122.673C250.33 117.079 245.603 114.303 241.219 117.644C238.092 120.032 235.331 123.314 233.342 126.76C227.834 136.385 226.359 147.29 223.921 158.258Z" fill="#ECE0D8"/>
<path d="M307.761 60.659C305.959 62.3753 303.089 63.3663 300.537 64.1962C292.562 66.847 284.448 69.3015 275.978 69.5528C262.1 70.0097 248.678 73.5644 234.884 74.5539C221.091 75.5434 207.348 77.3781 193.615 78.8755C187.135 79.5854 180.679 80.2717 174.197 81.078C167.472 81.9266 160.946 80.5615 154.47 79.1494C141.18 76.2687 128.414 71.7128 115.725 66.9899C115.343 66.8359 114.986 66.6101 114.628 66.4808C113.384 66.0646 112.315 65.3874 112.569 63.8744C112.823 62.3613 114.104 62.272 115.364 62.0134C116.527 61.8007 135.177 52.5137 143.566 48.7155C149.856 45.8789 156.33 43.4808 162.914 41.4472C166.171 40.4174 169.832 40.6033 173.313 40.2542C197.873 37.8155 222.435 35.3286 247.015 33.0592C252.55 32.5433 258.136 32.8726 263.688 32.6706C265.98 32.606 268.234 32.1546 270.529 31.9936C279.489 31.4167 288.452 31.732 297.288 33.2982C304.228 34.5046 309.324 38.1257 311.494 45.0514C313.4 50.9578 312.381 56.1176 307.761 60.659ZM269.949 37.9599C239.282 40.6112 208.689 43.2402 177.635 45.9303C178.552 46.8932 179.044 47.508 179.635 47.9807C180.369 48.5532 181.275 48.9612 181.984 49.5573C184.984 52.1143 184.644 55.1686 181.153 56.9402C179.614 57.7466 177.936 58.3085 176.328 58.9927C174.257 59.8344 172.212 60.6526 169.946 61.5859C170.514 62.0339 170.701 62.2796 170.917 62.309C172.647 62.5924 174.402 62.804 176.156 63.0639C177.885 63.3473 179.64 63.5589 181.366 63.9869C183.069 64.3902 184.322 65.4095 184.493 67.2705C184.645 68.9623 183.655 69.9992 182.261 70.8091C181.16 71.4334 180.176 72.2292 179.17 72.9522C210.883 69.9165 242.451 67.866 273.692 63.396C272.405 54.8761 271.164 46.4539 269.949 37.9599ZM174.329 70.736C170.805 69.8542 167.637 69.2463 164.55 68.2786C162.276 67.572 160.237 66.1718 160.132 63.5407C160.031 60.7651 162.228 59.6612 164.468 58.7995C165.977 58.2094 167.511 57.644 169.042 57.1267C171.353 56.3391 173.684 55.6726 175.97 54.8603C176.749 54.59 177.437 54.0762 178.365 53.5684C173.19 51.1993 168.445 48.9855 163.699 46.8198C156.547 50.383 149.442 53.9473 142.582 57.3728C142.598 61.6898 142.6 65.5482 142.624 69.4795C149.69 71.4606 156.587 73.4136 163.508 75.3912C163.891 75.497 164.298 75.6275 164.68 75.7815C166.832 76.5575 168.707 75.8075 170.329 74.5449C171.73 73.4458 172.897 72.0997 174.329 70.736ZM293.088 61.1205C296.258 59.7028 299.031 58.7095 301.599 57.253C303.75 56.0515 305.435 54.2117 305.837 51.5689C306.412 47.7728 305.531 44.327 303.464 41.1175C301.627 38.2995 294.812 37.916 294.141 37.7549C293.806 45.5599 293.483 52.8347 293.088 61.1205ZM284.667 37.6441C284.631 46.0111 284.658 53.8008 284.629 61.8786C286.058 61.6482 287.171 61.4825 288.914 61.1874C288.72 53.3695 288.545 45.7208 288.356 37.6619C287.56 37.6665 286.234 37.6583 284.667 37.6441ZM275.366 37.3206C276.674 45.9615 277.897 54.1662 279.119 62.371C279.312 62.3757 279.481 62.3557 279.674 62.3604C279.585 54.1592 279.496 45.958 279.391 37.3947C277.897 37.3582 276.548 37.3253 275.366 37.3206Z" fill="#ECE0D8"/>
<g clip-path="url(#clip0_1024_2500)">
<path d="M267.573 145.663C277.729 140.016 287.864 134.356 298.077 128.798C298.782 128.408 300.098 128.633 300.897 129.024C319.9 138.47 338.497 137.334 356.422 126.349C359.402 124.523 361.839 121.734 363.618 118.08C365.976 113.265 364.055 108.193 359.178 105.938C354.915 103.964 350.46 104.05 345.97 104.616C336.034 105.906 326.74 109.446 317.596 113.297C311.799 115.736 306.161 118.519 300.27 121.209C298.718 118.754 298.771 115.051 300.397 112.783C303.46 108.47 305.775 106.918 309.167 104.305C319.808 96.1027 331.991 90.7952 344.849 87.3095C354.418 84.7141 364.162 82.8083 373.832 80.607C374.674 80.41 375.553 80.291 376.333 80.0573C377.552 79.6943 378.317 79.062 378.255 77.9936C378.374 76.9491 376.851 76.4627 376.016 76.2733C374.641 75.9589 373.161 75.9163 371.773 76.0951C349.845 78.7092 328.834 84.2373 310.11 96.4752C306.004 99.1652 302.258 102.515 298.792 106.004C293.829 111.028 291.949 116.964 295.535 123.832C286.062 129.551 276.725 135.183 267.219 140.91C269.055 137.819 270.792 134.893 272.542 131.946C272.836 131.452 273.192 130.994 273.444 130.475C274.137 129.074 275.457 127.461 273.593 126.187C271.771 124.938 270.686 126.718 269.968 127.88C266.287 133.75 262.655 139.677 259.263 145.717C257.881 148.186 258.79 150.315 261.562 150.623C269.573 151.59 277.664 152.186 285.727 152.738C286.475 152.792 287.985 152.267 288.106 150.75C288.084 149.566 286.671 148.755 285.832 148.619C280.764 147.811 275.649 147.226 270.537 146.587C269.632 146.468 268.703 146.39 267.786 146.291C266.232 146.372 266.778 146.111 267.573 145.663ZM304.447 126.003C303.669 125.625 305.298 125.087 305.532 124.975C317.766 119.112 330.154 113.648 343.533 110.973C347.11 110.254 350.944 110.134 354.579 110.537C359.407 111.091 360.78 114.833 357.558 118.522C355.472 120.907 352.934 123.163 350.15 124.659C338.35 131.058 322.144 132.109 312.765 129.27C309.192 128.152 308.326 127.638 304.447 126.003Z" fill="#ECE0D8"/>
</g>
</g>
<defs>
<filter id="filter0_d_1024_2500" x="0.873384" y="13.7422" width="418.046" height="411.012" filterUnits="userSpaceOnUse" color-interpolation-filters="sRGB">
<feFlood flood-opacity="0" result="BackgroundImageFix"/>
<feColorMatrix in="SourceAlpha" type="matrix" values="0 0 0 0 0 0 0 0 0 0 0 0 0 0 0 0 0 0 127 0" result="hardAlpha"/>
<feOffset dy="2.95669"/>
<feGaussianBlur stdDeviation="1.47835"/>
<feComposite in2="hardAlpha" operator="out"/>
<feColorMatrix type="matrix" values="0 0 0 0 0 0 0 0 0 0 0 0 0 0 0 0 0 0 0.25 0"/>
<feBlend mode="normal" in2="BackgroundImageFix" result="effect1_dropShadow_1024_2500"/>
<feBlend mode="normal" in="SourceGraphic" in2="effect1_dropShadow_1024_2500" result="shape"/>
</filter>
<clipPath id="clip0_1024_2500">
<rect width="138.043" height="138.043" fill="white" transform="matrix(-0.510633 0.859798 0.859798 0.510633 297.273 20.561)"/>
</clipPath>
</defs>
</svg>
