<svg width="118" height="120" viewBox="0 0 118 120" fill="none" xmlns="http://www.w3.org/2000/svg">
<g filter="url(#filter0_d_672_1217)">
<mask id="path-1-inside-1_672_1217" fill="white">
<path fill-rule="evenodd" clip-rule="evenodd" d="M17.7696 72.3819L34.928 82.6953C30.8197 89.5316 32.9294 98.3432 39.6406 102.377C46.3518 106.411 55.1232 104.14 59.2326 97.3043L76.3867 107.615L87.548 89.0463C80.8387 85.0114 78.7302 76.2006 82.8388 69.3652C86.9474 62.5297 95.7175 60.2577 102.429 64.2896L113.534 45.8143L96.3697 35.4975C96.4455 35.3791 96.5198 35.2594 96.5927 35.1381C100.702 28.3018 98.5922 19.4895 91.8807 15.4553C85.1691 11.4212 76.3972 13.6928 72.288 20.5292C72.2152 20.6504 72.1443 20.7723 72.0753 20.8947L54.9166 10.581L17.7696 72.3819Z"/>
</mask>
<path fill-rule="evenodd" clip-rule="evenodd" d="M17.7696 72.3819L34.928 82.6953C30.8197 89.5316 32.9294 98.3432 39.6406 102.377C46.3518 106.411 55.1232 104.14 59.2326 97.3043L76.3867 107.615L87.548 89.0463C80.8387 85.0114 78.7302 76.2006 82.8388 69.3652C86.9474 62.5297 95.7175 60.2577 102.429 64.2896L113.534 45.8143L96.3697 35.4975C96.4455 35.3791 96.5198 35.2594 96.5927 35.1381C100.702 28.3018 98.5922 19.4895 91.8807 15.4553C85.1691 11.4212 76.3972 13.6928 72.288 20.5292C72.2152 20.6504 72.1443 20.7723 72.0753 20.8947L54.9166 10.581L17.7696 72.3819Z" fill="#131313"/>
<path d="M34.928 82.6953L37.9999 84.5414L39.8458 81.4698L36.7743 79.6236L34.928 82.6953ZM17.7696 72.3819L14.6979 70.5355L12.8515 73.6072L15.9233 75.4536L17.7696 72.3819ZM59.2326 97.3043L61.079 94.2325L58.0075 92.3863L56.1611 95.4576L59.2326 97.3043ZM76.3867 107.615L74.5404 110.687L77.6121 112.533L79.4584 109.461L76.3867 107.615ZM87.548 89.0463L90.6197 90.8926L92.4656 87.8216L89.395 85.975L87.548 89.0463ZM102.429 64.2896L100.583 67.3617L103.654 69.2069L105.5 66.1359L102.429 64.2896ZM113.534 45.8143L116.605 47.6606L118.452 44.5889L115.38 42.7426L113.534 45.8143ZM96.3697 35.4975L93.3513 33.5652L91.3637 36.67L94.5234 38.5692L96.3697 35.4975ZM72.0753 20.8947L70.2289 23.9664L73.3886 25.8656L75.1979 22.6537L72.0753 20.8947ZM54.9166 10.581L56.7629 7.50927L53.6912 5.66292L51.8448 8.73466L54.9166 10.581ZM36.7743 79.6236L19.616 69.3101L15.9233 75.4536L33.0816 85.7671L36.7743 79.6236ZM41.487 99.3053C36.5253 96.323 34.8789 89.7348 37.9999 84.5414L31.8561 80.8492C26.7605 89.3283 29.3336 100.363 37.7943 105.449L41.487 99.3053ZM56.1611 95.4576C53.0392 100.651 46.4487 102.288 41.487 99.3053L37.7943 105.449C46.255 110.534 57.2072 107.629 62.3042 99.1509L56.1611 95.4576ZM78.2331 104.543L61.079 94.2325L57.3863 100.376L74.5404 110.687L78.2331 104.543ZM84.4762 87.1999L73.315 105.769L79.4584 109.461L90.6197 90.8926L84.4762 87.1999ZM89.395 85.975C84.4347 82.9919 82.7893 76.4043 85.9105 71.2115L79.7671 67.5188C74.6711 75.9969 77.2426 87.0308 85.7009 92.1176L89.395 85.975ZM85.9105 71.2115C89.0318 66.0187 95.6213 64.3809 100.583 67.3617L104.274 61.2174C95.8136 56.1345 84.863 59.0407 79.7671 67.5188L85.9105 71.2115ZM110.462 43.968L99.3569 62.4432L105.5 66.1359L116.605 47.6606L110.462 43.968ZM94.5234 38.5692L111.687 48.886L115.38 42.7426L98.2161 32.4257L94.5234 38.5692ZM93.5209 33.2918C93.4654 33.3841 93.4089 33.4753 93.3513 33.5652L99.3881 37.4298C99.4821 37.283 99.5742 37.1346 99.6644 36.9845L93.5209 33.2918ZM90.0343 18.527C94.9963 21.5095 96.6426 28.0983 93.5209 33.2918L99.6644 36.9845C104.761 28.5052 102.188 17.4694 93.727 12.3836L90.0343 18.527ZM75.3598 22.3756C78.4815 17.182 85.0724 15.5445 90.0343 18.527L93.727 12.3836C85.2659 7.29779 74.3129 10.2036 69.2163 18.6829L75.3598 22.3756ZM75.1979 22.6537C75.2503 22.5606 75.3043 22.4679 75.3598 22.3756L69.2163 18.6829C69.1261 18.833 69.0382 18.9839 68.9527 19.1357L75.1979 22.6537ZM53.0702 13.6527L70.2289 23.9664L73.9216 17.823L56.7629 7.50927L53.0702 13.6527ZM20.8414 74.2282L57.9883 12.4274L51.8448 8.73466L14.6979 70.5355L20.8414 74.2282Z" fill="#ECE0D8" mask="url(#path-1-inside-1_672_1217)"/>
</g>
<defs>
<filter id="filter0_d_672_1217" x="0.0654964" y="0.378659" width="117.369" height="118.639" filterUnits="userSpaceOnUse" color-interpolation-filters="sRGB">
<feFlood flood-opacity="0" result="BackgroundImageFix"/>
<feColorMatrix in="SourceAlpha" type="matrix" values="0 0 0 0 0 0 0 0 0 0 0 0 0 0 0 0 0 0 127 0" result="hardAlpha"/>
<feOffset dx="-6.90162" dy="0.600141"/>
<feGaussianBlur stdDeviation="5.40127"/>
<feComposite in2="hardAlpha" operator="out"/>
<feColorMatrix type="matrix" values="0 0 0 0 0 0 0 0 0 0 0 0 0 0 0 0 0 0 0.5 0"/>
<feBlend mode="normal" in2="BackgroundImageFix" result="effect1_dropShadow_672_1217"/>
<feBlend mode="normal" in="SourceGraphic" in2="effect1_dropShadow_672_1217" result="shape"/>
</filter>
</defs>
</svg>
