<svg width="100%" height="100%" viewBox="0 0 325 412" fill="none" xmlns="http://www.w3.org/2000/svg">
<path d="M158.669 42.503C159.39 43.2939 159.483 44.4571 158.925 45.3877C158.413 46.2484 157.971 46.9929 157.459 47.6908C152.155 55.0422 149.247 58.8807 144.013 66.2786C142.687 68.1398 139.476 73.8394 138.243 75.7936C138.22 75.8168 138.22 75.8401 138.197 75.8634C137.08 77.5384 134.335 77.4221 133.451 75.5842C133.451 75.5842 133.451 75.5609 133.428 75.5609C132.125 72.6995 131.078 69.745 129.868 66.837C126.542 58.8109 121.912 51.855 114.212 47.2953C111.42 45.6436 111.374 44.4339 113.537 42.0377C114.351 41.1536 115.166 40.2464 116.05 39.4554C124.587 31.8481 130.473 22.4495 134.87 11.9807C135.149 11.3293 135.708 10.8175 136.312 10.3057C137.103 9.65433 138.243 9.74739 138.941 10.4918C139.523 11.0967 140.058 11.7481 140.384 12.4693C141.105 14.1443 141.291 16.0286 141.733 17.82C144.106 27.5675 149.387 35.3377 157.413 41.3165C157.855 41.6422 158.25 42.0609 158.669 42.503ZM137.29 19.146C134.521 23.7523 132.195 28.4981 129.031 32.6391C125.797 36.8498 121.749 40.4325 118.05 44.3175C127.449 49.9474 132.893 58.8575 136.173 69.7915C140.989 59.8345 147.642 51.9248 154.947 44.5269C143.408 35.7332 140.663 31.755 137.29 19.146Z" fill="#ECE0D8"/>
<path d="M70.941 122.786C68.824 116.784 66.9862 110.666 64.6598 104.757C62.3799 99.0339 58.9834 93.9391 54.098 90.0075C52.3067 88.5652 52.3532 87.2624 53.8188 85.6339C62.0542 76.6773 68.382 66.5343 72.9185 55.2513C73.407 54.0416 74.7098 52.1107 75.6171 52.1107C78.083 51.5291 78.9671 56.3447 79.0601 56.7867C81.1306 68.1395 88.1563 76.3982 96.0428 84.1218C98.6018 86.6343 98.8112 87.402 96.2987 89.8214C86.8303 98.8944 80.549 110.061 75.1518 121.809C73.4535 125.904 71.1969 123.508 70.941 122.786ZM56.9362 87.2391C61.9612 90.4263 65.2879 94.6836 67.7073 99.4992C70.057 104.222 71.7785 109.224 73.7327 114.016C78.2459 103.919 84.341 94.5905 93.6001 87.4951C84.6435 80.4461 77.5712 72.3968 75.4077 60.8579C71.5226 71.2336 65.3577 79.8645 56.9362 87.2391Z" fill="#ECE0D8"/>
<path d="M134.521 97.755C129.38 104.664 126.239 112.551 123.355 120.577C123.168 121.089 122.564 123.997 120.353 123.973C119.725 123.973 118.678 122.973 118.283 122.182C116.538 118.623 115.445 114.645 113.235 111.434C110.629 107.619 107.047 104.478 104.022 100.965C103.58 100.454 103.417 99.2904 103.697 98.6623C104.232 97.4991 105.185 96.5686 105.93 95.4984C109.722 89.9151 113.444 84.2852 117.352 78.7949C118.167 77.655 119.772 76.2824 120.726 76.2824C123.099 76.2592 123.564 78.1203 123.983 79.4463C125.89 85.5415 129.17 90.6363 133.94 94.847C135.638 96.429 134.731 97.4758 134.521 97.755ZM108.396 99.3602C113.933 103.292 117.701 108.968 119.981 115.319C123.355 109.131 126.798 102.827 130.334 96.3127C125.588 93.0324 122.284 86.914 120.772 82.4008C116.631 88.0772 112.537 93.6838 108.396 99.3602Z" fill="#ECE0D8"/>
<g filter="url(#filter0_d_672_1241)">
<path fill-rule="evenodd" clip-rule="evenodd" d="M128.209 382.426C153.447 389.188 179.388 374.212 186.152 348.974L250.669 366.261L269.037 297.711C269.036 297.711 269.035 297.71 269.034 297.71C243.795 290.948 228.818 265.006 235.58 239.768C242.343 214.529 268.285 199.552 293.523 206.314C293.524 206.315 293.525 206.315 293.526 206.315L311.802 138.108L247.263 120.815C247.396 120.371 247.523 119.923 247.644 119.472C254.407 94.2341 239.429 68.2924 214.191 61.5298C188.953 54.7673 163.011 69.7447 156.248 94.9829C156.128 95.4339 156.014 95.885 155.907 96.3363L91.3776 79.0458L30.2441 307.199L94.7559 324.485C87.9942 349.722 102.972 375.663 128.209 382.426Z" fill="#9747FF"/>
</g>
<g clip-path="url(#clip0_672_1241)">
<path d="M233.774 229.07C243.395 264.871 226.739 302.803 194.462 318.353C190.608 320.2 185.865 322.705 180.907 323.781C164.803 327.338 151.717 326.665 137.147 319.824C117.144 310.399 104.569 294.354 99.3937 273.157C92.6944 245.747 98.5768 220.689 117.987 199.945C136.042 180.631 158.594 173.186 184.695 179.294C208.518 184.861 227.05 204.079 233.774 229.07ZM227.827 231.898C227.687 231.374 227.52 230.858 227.328 230.348C225.762 226.391 224.347 222.366 222.541 218.557C208.677 189.224 175.031 176.104 145.685 188.456C102.044 206.826 89.9431 267.413 122.928 301.414C140.367 319.382 170.14 323.804 189.465 314.362C219.978 299.453 235.823 264.88 227.827 231.898Z" fill="#ECE0D8"/>
<path d="M138.641 283.205C160.639 291.59 193.502 285.871 204.077 261.996C204.217 261.678 204.37 261.413 204.277 261.381C203.126 260.119 200.26 258.951 201.69 256.856C203.159 254.695 205.232 256.356 206.825 257.276C209.148 258.617 211.504 259.978 213.584 261.665C214.45 262.387 216.302 263.434 215.173 265.083C214.246 266.65 212.926 266.33 211.132 265.604C210.411 265.321 209.602 264.92 209.092 264.692C207.556 267.124 206.24 269.44 204.726 271.641C195.827 284.603 182.857 290.434 167.772 292.036C157.24 293.146 146.912 291.874 137.053 287.642C136.768 287.522 135.725 286.876 135.352 286.948C134.605 287.092 134.555 287.638 133.678 288.238C133.06 288.656 132.857 289.468 131.11 288.393C129.676 287.543 130.139 286.128 130.55 285.569C132.709 282.634 135.075 279.84 137.554 277.156C138.012 276.668 139.191 276.044 140.114 276.975C141.11 277.97 140.65 278.767 140.407 279.533C140.038 280.67 139.28 281.715 138.545 282.95C138.547 283.062 138.575 283.166 138.641 283.205Z" fill="#ECE0D8"/>
<path d="M204.638 241.786C204.959 241.728 205.278 241.558 205.531 241.35C207.285 239.73 206.386 236.688 205.888 234.83C204.81 230.911 203.462 227.765 202.426 224.003C202.012 222.458 201.492 220.83 201.525 219.279C201.548 218.318 202.398 216.884 203.196 216.614C203.993 216.345 205.348 216.374 206.126 217.709C209.28 223.513 211.528 231.692 211.826 237.307C212.083 242.035 208.694 245.3 205.298 246.238C201.614 247.253 196.841 245.671 194.529 241.437C192.046 236.884 190.586 231.748 188.716 226.863C188.613 226.582 188.36 225.639 188.309 225.345C188.049 223.535 188.41 222.372 190.696 221.899C192.36 221.51 193.462 223.739 194.141 225.016C195.336 227.277 195.84 229.892 196.918 232.24C198.575 235.808 200.798 242.534 204.638 241.786Z" fill="#ECE0D8"/>
<path d="M129.563 244.088C129.433 242.973 128.835 241.477 130.917 240.555C132.751 239.755 134.133 241.461 134.457 242.356C136.284 247.393 138.177 252.469 139.133 257.711C140.017 262.581 136.823 267.729 133.102 269.231C128.825 270.966 123.208 269.581 120.382 264.896C117.765 260.575 115.688 255.128 114.543 250.75C114.347 250.017 114.211 248.566 115.49 247.999C117.093 247.177 117.892 248.59 118.345 249.338C120.217 252.344 121.626 255.613 123.523 258.612C124.644 260.387 126.139 262.091 127.828 263.265C130.582 265.165 133.204 263.957 133.214 260.644C133.212 257.39 129.819 246.404 129.563 244.088Z" fill="#ECE0D8"/>
</g>
<g clip-path="url(#clip1_672_1241)">
<path d="M254.574 199.264C258.743 200.869 262.224 201.941 265.409 203.553C267.1 204.412 269.363 206.026 269.532 207.518C269.707 209.071 268.037 211.402 266.531 212.457C262.13 215.55 257.437 218.322 252.725 220.909C251.707 221.468 249.715 221.623 248.594 220.597C247.321 219.81 249.142 217.241 250.126 216.46C253.906 213.515 257.994 210.926 262.309 207.979C259.383 206.853 256.929 205.968 254.489 204.969C247.972 202.283 246.883 198.237 251.565 193.023C258.181 185.64 265.001 178.424 271.737 171.117C272.55 170.24 273.311 169.344 274.082 168.422C275.441 167.131 274.989 166.838 273.597 167.521C270.935 168.875 268.258 170.194 265.596 171.548C260.867 173.949 256.153 176.387 251.408 178.752C250.338 179.292 249.085 179.612 248.029 180.039C246.169 180.779 244.27 179.841 243.263 178.829C242.406 177.964 241.677 176.613 242.74 174.317C245.021 169.546 247.655 164.941 250.306 160.372C256.265 150.061 262.293 139.805 267.954 129.111C264.555 131.608 261.105 134.086 257.774 136.639C250.402 142.275 243.156 148.048 235.711 153.567C233.165 155.471 230.342 158.249 226.817 155.822C223.505 153.537 224.834 150.005 225.49 146.988C227.591 137.51 229.909 128.086 232.124 118.623C232.343 117.667 232.423 116.687 232.732 114.725C227.957 118.714 223.645 121.96 219.788 125.649C211.662 133.402 203.734 141.41 195.733 149.301C190.408 154.565 186.852 153.762 184.716 146.489C182.03 137.399 179.657 128.191 177.115 119.038C176.639 117.338 175.984 115.719 175.069 113.077C174.248 114.902 173.694 115.878 173.383 116.918C169.773 128.847 166.189 140.786 162.596 152.752C161.653 155.897 161.28 159.648 157.616 160.824C153.784 162.055 151.619 158.873 149.245 156.622C146.787 154.279 144.421 151.852 141.296 149.698C141.768 152.644 142.249 155.565 142.721 158.511C143.103 160.917 143.67 163.306 143.815 165.71C143.873 166.565 142.982 168.184 142.436 168.212C141.458 168.281 140.486 168.413 139.476 166.865C139.04 166.221 138.75 165.277 138.604 164.418C137.502 158.554 136.24 152.717 135.544 146.801C135.351 145.062 136.28 142.417 137.577 141.518C138.664 140.778 141.513 141.487 142.845 142.505C146.259 145.068 149.278 148.192 152.449 151.076C153.487 152.011 154.504 152.997 155.928 154.318C156.875 151.472 157.632 149.117 158.426 146.747C162.503 134.373 166.581 122 170.685 109.636C170.978 108.798 171.348 107.989 171.787 107.236C173.325 104.707 176.239 104.163 178.094 106.453C179.79 108.532 181.266 111.033 182.062 113.598C184.985 123.077 187.595 132.673 190.312 142.221C190.599 143.253 190.931 144.243 191.367 145.659C197.203 139.997 202.592 134.49 208.264 129.33C215.036 123.166 221.991 117.221 228.972 111.286C231.092 109.486 233.319 106.864 236.526 108.574C239.733 110.284 239.427 113.704 238.883 116.586C237.168 125.677 235.113 134.727 233.207 143.774C232.886 145.226 232.555 146.704 232.818 148.648C237.876 145.006 242.934 141.363 247.977 137.685C255.398 132.306 262.777 126.881 270.214 121.538C271.985 120.257 273.973 118.644 276.212 120.397C278.493 122.197 277.845 124.653 276.739 126.754C272.22 135.331 267.664 143.923 262.922 152.384C259.08 159.2 254.948 165.845 251.321 173.338C255.11 171.526 258.81 169.561 262.678 167.928C267.551 165.849 272.498 163.888 277.526 162.255C279.06 161.746 281.984 161.949 282.505 162.834C283.254 164.133 283.043 166.846 282.106 168.12C278.643 172.793 274.796 177.228 270.901 181.556C265.86 187.316 260.594 192.811 254.574 199.264Z" fill="#ECE0D8"/>
</g>
<defs>
<filter id="filter0_d_672_1241" x="0.604943" y="42.8258" width="317.728" height="360.314" filterUnits="userSpaceOnUse" color-interpolation-filters="sRGB">
<feFlood flood-opacity="0" result="BackgroundImageFix"/>
<feColorMatrix in="SourceAlpha" type="matrix" values="0 0 0 0 0 0 0 0 0 0 0 0 0 0 0 0 0 0 127 0" result="hardAlpha"/>
<feOffset dx="-11.5543" dy="1.00472"/>
<feGaussianBlur stdDeviation="9.04247"/>
<feComposite in2="hardAlpha" operator="out"/>
<feColorMatrix type="matrix" values="0 0 0 0 0 0 0 0 0 0 0 0 0 0 0 0 0 0 0.5 0"/>
<feBlend mode="normal" in2="BackgroundImageFix" result="effect1_dropShadow_672_1241"/>
<feBlend mode="normal" in="SourceGraphic" in2="effect1_dropShadow_672_1241" result="shape"/>
</filter>
<clipPath id="clip0_672_1241">
<rect width="156.09" height="156.09" fill="white" transform="translate(70.9999 195.983) rotate(-15)"/>
</clipPath>
<clipPath id="clip1_672_1241">
<rect width="159.812" height="159.812" fill="white" transform="translate(166.488 48) rotate(21.0474)"/>
</clipPath>
</defs>
</svg>
