<svg width="100%" height="100%" viewBox="0 0 510 537" fill="none" xmlns="http://www.w3.org/2000/svg">
<g clip-path="url(#clip0_1198_3323)">
<path d="M144.327 136.935C145.42 137.168 146.207 138.1 146.299 139.23C146.388 140.272 146.466 141.173 146.456 142.077C146.424 151.548 146.29 156.577 146.346 166.044C146.352 168.431 147.093 175.225 147.235 177.635C147.23 177.669 147.244 177.689 147.238 177.722C147.309 179.824 144.907 181.396 143.038 180.373C143.038 180.373 143.024 180.353 143.004 180.367C140.157 178.73 137.47 176.858 134.673 175.124C126.965 170.332 118.801 167.242 109.487 168.055C106.112 168.35 105.336 167.351 105.715 164C105.869 162.754 106.009 161.488 106.278 160.278C108.9 148.623 108.18 137.06 105.545 125.495C105.386 124.772 105.548 123.997 105.751 123.195C106.026 122.16 107.051 121.546 108.096 121.753C108.958 121.913 109.809 122.141 110.524 122.555C112.156 123.539 113.46 125.026 114.926 126.278C122.872 133.112 132.084 136.498 142.538 136.692C143.111 136.7 143.702 136.815 144.327 136.935ZM111.959 130.108C112.411 135.704 113.322 141.15 113.155 146.591C112.971 152.135 111.713 157.64 110.935 163.19C122.342 162.253 132.387 166.508 141.825 173.797C139.857 162.412 140.694 151.646 142.397 140.919C127.247 140.472 122.495 138.763 111.959 130.108Z" fill="#ECE0D8"/>
<path d="M118.67 258.492C113.22 254.683 107.936 250.605 102.366 247.002C96.9474 243.529 90.9631 241.269 84.4221 240.903C82.0232 240.768 81.2701 239.633 81.524 237.358C83.0683 224.741 82.2708 212.277 79.2584 199.935C78.9373 198.611 78.8689 196.178 79.6394 195.626C81.3797 193.632 85.0604 197.184 85.4084 197.503C94.0741 205.884 105.065 208.623 116.462 210.384C120.164 210.961 120.809 211.485 120.147 215.069C117.627 228.535 119.087 241.839 121.651 255.1C122.7 259.611 119.326 258.949 118.67 258.492ZM85.148 236.825C91.3546 236.474 96.7701 238.066 101.755 240.683C106.624 243.264 111.129 246.464 115.704 249.345C113.394 238.025 112.894 226.394 116.44 214.735C104.545 214.198 93.6416 211.665 84.7836 203.182C87.7972 214.357 87.813 225.438 85.148 236.825Z" fill="#ECE0D8"/>
<path d="M157.436 198.55C157.273 207.546 159.404 216.155 161.838 224.726C161.991 225.274 163.247 228.111 161.356 229.436C160.822 229.818 159.325 229.606 158.508 229.175C154.86 227.214 151.511 224.5 147.681 223.119C143.147 221.464 138.194 220.976 133.488 219.833C132.801 219.668 131.955 218.779 131.81 218.076C131.557 216.762 131.801 215.392 131.782 214.03C131.605 206.981 131.341 199.935 131.319 192.895C131.317 191.431 131.845 189.289 132.655 188.709C134.656 187.245 136.184 188.542 137.346 189.414C142.675 193.429 148.56 195.76 155.172 196.435C157.577 196.745 157.444 198.186 157.436 198.55ZM136.225 215.809C143.32 215.779 149.974 218.307 155.774 222.313C154.874 215.006 153.962 207.557 153.002 199.873C146.976 199.975 140.448 196.789 136.417 193.876C136.354 201.216 136.288 208.469 136.225 215.809Z" fill="#ECE0D8"/>
</g>
<g filter="url(#filter0_d_1198_3323)">
<path fill-rule="evenodd" clip-rule="evenodd" d="M325.275 444.145C350.823 434.533 363.741 406.03 354.129 380.482L419.437 355.91L393.328 286.518C393.327 286.518 393.326 286.519 393.325 286.519C367.777 296.132 339.274 283.214 329.661 257.666C320.049 232.118 332.967 203.615 358.514 194.002C358.515 194.002 358.516 194.001 358.517 194.001L332.539 124.957L267.207 149.538C267.05 149.08 266.885 148.623 266.713 148.166C257.101 122.618 228.597 109.7 203.049 119.313C177.501 128.925 164.583 157.429 174.196 182.977C174.368 183.433 174.546 183.886 174.729 184.334L109.409 208.912L196.307 439.864L261.612 415.293C271.225 440.84 299.728 453.758 325.275 444.145Z" fill="#9747FF"/>
</g>
<g clip-path="url(#clip1_1198_3323)">
<path d="M200.106 292.251C197.553 330.895 222.358 366.362 258.6 375.71C262.926 376.815 268.297 378.414 273.596 378.505C290.822 378.865 304.092 375.505 317.624 365.523C336.197 351.785 345.808 332.781 346.785 310.006C348.057 280.556 336.918 256.081 312.798 238.788C290.36 222.683 265.733 219.655 240.237 231.238C216.964 241.803 201.897 265.274 200.106 292.251ZM206.777 293.935C206.814 293.37 206.879 292.807 206.972 292.246C207.769 287.872 208.398 283.459 209.471 279.188C217.691 246.305 249.488 225.998 282.076 232.667C330.537 242.586 355.296 302.193 328.437 343.76C314.235 365.727 284.632 376.332 262.906 370.601C228.602 361.55 205.313 329.36 206.777 293.935Z" fill="#ECE0D8"/>
<path d="M308.624 328.308C287.796 341.388 252.958 342.232 237.252 319.928C237.044 319.63 236.833 319.39 236.921 319.339C237.844 317.81 240.542 316.029 238.649 314.175C236.703 312.26 234.919 314.385 233.474 315.652C231.367 317.501 229.231 319.375 227.444 321.528C226.704 322.444 225.02 323.895 226.513 325.354C227.783 326.77 229.07 326.174 230.76 325.064C231.441 324.626 232.188 324.051 232.664 323.713C234.734 325.891 236.554 327.996 238.555 329.943C250.317 341.407 264.796 344.736 280.578 343.299C291.596 342.288 301.918 338.878 311.156 332.53C311.424 332.349 312.36 331.474 312.758 331.472C313.552 331.467 313.715 332.017 314.736 332.452C315.454 332.754 315.828 333.545 317.399 332.087C318.694 330.923 317.932 329.569 317.396 329.08C314.585 326.513 311.592 324.133 308.504 321.888C307.935 321.482 306.599 321.083 305.844 322.225C305.026 323.448 305.66 324.171 306.066 324.906C306.675 325.996 307.665 326.912 308.67 328.027C308.691 328.142 308.684 328.255 308.624 328.308Z" fill="#ECE0D8"/>
<path d="M232.554 299.335C232.213 299.341 231.852 299.233 231.55 299.071C229.422 297.769 229.723 294.469 229.854 292.463C230.159 288.228 230.899 284.73 231.193 280.664C231.302 278.997 231.503 277.223 231.152 275.639C230.932 274.66 229.769 273.364 228.897 273.251C228.025 273.137 226.643 273.444 226.117 274.97C224.07 281.56 223.435 290.399 224.276 296.213C224.977 301.11 229.116 303.763 232.786 304.032C236.768 304.32 241.335 301.725 242.841 296.915C244.455 291.744 244.904 286.184 245.823 280.797C245.872 280.488 245.938 279.471 245.93 279.158C245.828 277.251 245.22 276.133 242.781 276.116C240.998 276.056 240.323 278.565 239.888 280.012C239.125 282.572 239.142 285.354 238.516 287.98C237.546 291.973 236.641 299.319 232.554 299.335Z" fill="#ECE0D8"/>
<path d="M309.945 286.377C309.851 285.208 310.158 283.554 307.837 283.034C305.795 282.588 304.726 284.618 304.577 285.601C303.733 291.135 302.829 296.722 302.919 302.288C303.007 307.457 307.329 312.081 311.449 312.86C316.184 313.766 321.657 311.201 323.597 305.824C325.397 300.863 326.413 294.858 326.693 290.139C326.745 289.348 326.588 287.834 325.162 287.514C323.352 286.998 322.821 288.609 322.51 289.468C321.205 292.929 320.429 296.567 319.096 300.026C318.31 302.074 317.126 304.124 315.635 305.672C313.201 308.18 310.268 307.478 309.582 304.085C308.921 300.751 310.155 288.803 309.945 286.377Z" fill="#ECE0D8"/>
</g>
<g clip-path="url(#clip2_1198_3323)">
<path d="M172.716 265.954C168.772 268.448 165.424 270.257 162.489 272.559C160.932 273.784 158.943 275.899 159.074 277.462C159.212 279.09 161.398 281.137 163.156 281.911C168.296 284.182 173.671 286.065 179.026 287.754C180.183 288.119 182.256 287.872 183.195 286.592C184.339 285.526 181.949 283.265 180.781 282.666C176.308 280.419 171.591 278.6 166.569 276.461C169.337 274.71 171.671 273.303 173.967 271.782C180.096 267.7 180.387 263.333 174.526 258.945C166.24 252.731 157.78 246.729 149.388 240.616C148.376 239.884 147.414 239.121 146.435 238.333C144.78 237.288 145.183 236.896 146.75 237.312C149.753 238.156 152.765 238.96 155.768 239.805C161.104 241.301 166.43 242.836 171.775 244.292C172.981 244.627 174.33 244.699 175.499 244.92C177.557 245.3 179.31 243.951 180.136 242.708C180.837 241.648 181.308 240.115 179.752 237.979C176.441 233.557 172.802 229.376 169.155 225.235C160.945 215.886 152.677 206.608 144.695 196.806C148.686 198.671 152.727 200.505 156.661 202.442C165.363 206.713 173.965 211.15 182.719 215.285C185.716 216.716 189.176 218.987 192.293 215.781C195.22 212.764 193.138 209.417 191.85 206.459C187.763 197.177 183.466 187.994 179.266 178.75C178.846 177.815 178.564 176.827 177.847 174.88C183.554 177.993 188.633 180.439 193.338 183.432C203.246 189.718 213.002 196.306 222.81 202.758C229.341 207.065 232.82 205.516 233.524 197.629C234.422 187.767 234.974 177.85 235.711 167.952C235.852 166.114 236.193 164.321 236.593 161.428C237.806 163.13 238.573 164.017 239.103 165.018C245.235 176.505 251.343 188.006 257.466 199.533C259.074 202.563 260.221 206.33 264.215 206.788C268.393 207.267 269.962 203.565 271.935 200.774C273.975 197.872 275.904 194.903 278.667 192.059C278.784 195.174 278.887 198.264 279.005 201.379C279.104 203.922 279.01 206.485 279.352 208.978C279.468 209.866 280.711 211.343 281.275 211.26C282.292 211.132 283.315 211.068 284.033 209.276C284.349 208.528 284.454 207.501 284.428 206.592C284.361 200.358 284.463 194.12 283.969 187.917C283.812 186.095 282.321 183.575 280.809 182.919C279.543 182.382 276.77 183.69 275.612 185.005C272.637 188.327 270.181 192.144 267.521 195.746C266.648 196.915 265.807 198.134 264.617 199.777C263.066 197.054 261.81 194.796 260.514 192.53C253.811 180.684 247.109 168.838 240.382 157.008C239.911 156.208 239.366 155.455 238.763 154.774C236.671 152.496 233.574 152.534 232.142 155.257C230.827 157.734 229.826 160.597 229.533 163.388C228.472 173.696 227.756 184.06 226.92 194.398C226.837 195.513 226.698 196.596 226.54 198.136C219.406 193.525 212.761 188.982 205.897 184.852C197.701 179.918 189.362 175.246 180.998 170.589C178.459 169.177 175.642 166.946 172.705 169.352C169.768 171.758 170.779 175.2 171.925 178.042C175.536 187.007 179.488 195.859 183.287 204.74C183.912 206.163 184.553 207.609 184.68 209.655C178.755 206.955 172.829 204.255 166.912 201.515C158.211 197.518 149.544 193.465 140.834 189.508C138.758 188.557 136.392 187.31 134.455 189.563C132.486 191.871 133.651 194.256 135.213 196.183C141.593 204.049 148.013 211.923 154.598 219.625C159.925 225.825 165.515 231.789 170.759 238.727C166.507 237.643 162.316 236.384 158.019 235.501C152.602 234.365 147.134 233.365 141.649 232.718C139.974 232.508 137.019 233.314 136.665 234.326C136.163 235.81 136.933 238.547 138.153 239.662C142.654 243.743 147.501 247.502 152.375 251.142C158.715 256.015 165.231 260.571 172.716 265.954Z" fill="#ECE0D8"/>
</g>
<defs>
<filter id="filter0_d_1198_3323" x="78.4441" y="98.2896" width="347.816" height="368.978" filterUnits="userSpaceOnUse" color-interpolation-filters="sRGB">
<feFlood flood-opacity="0" result="BackgroundImageFix"/>
<feColorMatrix in="SourceAlpha" type="matrix" values="0 0 0 0 0 0 0 0 0 0 0 0 0 0 0 0 0 0 127 0" result="hardAlpha"/>
<feOffset dx="-12.0708" dy="1.04963"/>
<feGaussianBlur stdDeviation="9.44668"/>
<feComposite in2="hardAlpha" operator="out"/>
<feColorMatrix type="matrix" values="0 0 0 0 0 0 0 0 0 0 0 0 0 0 0 0 0 0 0.5 0"/>
<feBlend mode="normal" in2="BackgroundImageFix" result="effect1_dropShadow_1198_3323"/>
<feBlend mode="normal" in="SourceGraphic" in2="effect1_dropShadow_1198_3323" result="shape"/>
</filter>
<clipPath id="clip0_1198_3323">
<rect width="139.99" height="139.99" fill="white" transform="translate(16.8359 173.651) rotate(-35.6193)"/>
</clipPath>
<clipPath id="clip1_1198_3323">
<rect width="163.067" height="163.067" fill="white" transform="matrix(-0.997872 -0.0652026 -0.0652026 0.997872 360.133 225.142)"/>
</clipPath>
<clipPath id="clip2_1198_3323">
<rect width="166.956" height="166.956" fill="white" transform="matrix(-0.845178 0.534484 0.534484 0.845178 232.107 93)"/>
</clipPath>
</defs>
</svg>
