<svg width="100%" height="100%" viewBox="0 0 365 369" fill="none" xmlns="http://www.w3.org/2000/svg">
<g filter="url(#filter0_d_672_1258)">
<path d="M341.688 234.454C342.058 236.287 341.539 238.509 341.044 240.465C339.536 246.598 337.846 252.741 334.613 258.229C329.345 267.237 326.23 277.196 321.334 286.365C316.438 295.533 312.1 305.007 307.551 314.341C305.407 318.746 303.258 323.126 301.174 327.571C299.02 332.188 295.538 335.791 292.046 339.344C284.891 346.641 276.88 352.935 268.794 359.113C268.543 359.294 268.257 359.43 268.031 359.607C267.268 360.231 266.409 360.639 265.549 359.872C264.688 359.104 265.144 358.254 265.485 357.349C265.815 356.524 267.38 340.944 268.324 334.088C269.04 328.951 270.108 323.874 271.452 318.872C272.102 316.389 273.686 314.135 274.859 311.781C283.145 295.186 291.402 278.57 299.804 262.03C301.693 258.303 304.14 254.882 306.236 251.271C307.113 249.787 307.728 248.173 308.545 246.649C311.768 240.72 315.558 235.146 320.094 230.154C323.64 226.224 327.985 224.434 333.258 225.828C337.777 226.982 340.651 229.696 341.688 234.454ZM312.107 249.408C301.51 269.972 290.927 290.481 280.2 311.306C281.179 311.109 281.767 311.042 282.305 310.856C282.962 310.619 283.585 310.206 284.248 309.993C287.076 309.11 288.882 310.549 288.61 313.479C288.506 314.781 288.192 316.073 287.983 317.37C287.689 319.024 287.39 320.652 287.076 322.467C287.588 322.285 287.819 322.265 287.925 322.139C288.797 321.153 289.635 320.121 290.503 319.11C291.376 318.124 292.214 317.092 293.177 316.166C294.115 315.245 295.265 314.856 296.518 315.493C297.654 316.074 297.917 317.119 297.874 318.33C297.83 319.28 297.942 320.224 297.999 321.154C308.771 299.771 320.111 278.874 329.783 257.216C323.849 254.622 317.996 252.037 312.107 249.408ZM294.65 323.345C292.678 325.232 291.022 327.004 289.17 328.579C287.81 329.742 286.103 330.478 284.388 329.491C282.582 328.444 282.76 326.604 283.109 324.835C283.339 323.638 283.593 322.437 283.878 321.256C284.302 319.471 284.812 317.721 285.212 315.942C285.352 315.339 285.3 314.695 285.349 313.901C281.77 316.244 278.461 318.374 275.183 320.525C274.584 326.501 274.005 332.446 273.436 338.181C276.187 339.901 278.642 341.445 281.152 343.004C285.242 339.304 289.246 335.7 293.276 332.091C293.497 331.89 293.743 331.683 293.994 331.502C295.349 330.445 295.623 328.952 295.47 327.414C295.333 326.083 294.944 324.802 294.65 323.345ZM336.104 243.97C336.472 241.386 336.952 239.225 337.054 237.009C337.152 235.159 336.656 233.351 335.137 232.036C332.953 230.15 330.409 229.33 327.54 229.359C325.012 229.398 322.038 233.579 321.667 233.941C326.496 237.281 330.993 240.4 336.104 243.97ZM317.802 239.922C323.108 243.296 328.073 246.399 333.198 249.653C333.624 248.652 333.965 247.878 334.475 246.651C329.425 243.643 324.491 240.691 319.291 237.583C318.975 238.091 318.438 238.931 317.802 239.922ZM313.871 245.707C319.89 248.336 325.597 250.845 331.304 253.354C331.385 253.233 331.44 253.118 331.52 252.997C326.269 249.769 321.018 246.54 315.53 243.177C314.908 244.112 314.347 244.957 313.871 245.707Z" fill="#ECE0D8"/>
<g filter="url(#filter1_d_672_1258)">
<path fill-rule="evenodd" clip-rule="evenodd" d="M106.516 113.028L156.36 307.132L204.894 294.669C212.212 320.839 239.151 336.476 265.6 329.684C292.048 322.892 308.121 296.211 301.924 269.753L350.464 257.288L300.621 63.1844L251.87 75.7032C243.175 51.742 217.53 37.853 192.33 44.324C167.131 50.7949 151.35 75.3218 155.276 100.508L106.516 113.028Z" fill="#FF5247"/>
</g>
<g clip-path="url(#clip0_672_1258)">
<path d="M280.741 223.051C281.68 222.297 282.499 221.642 283.333 221.014C289.288 216.45 295.782 218.584 297.986 225.861C300.171 232.975 298.796 239.781 295.821 246.318C288.647 262.033 275.888 272.142 261.163 280.106C257.095 282.291 254.279 281.127 253.074 276.697C248.282 259.03 245.847 241.116 249.741 223.003C250.718 218.387 253.307 213.617 256.457 210.065C263.513 202.063 274.793 204.596 278.549 214.591C279.567 217.219 279.982 220.073 280.741 223.051ZM259.114 273.748C262.882 271.139 265.976 269.071 268.997 266.869C278.577 259.878 286.29 251.241 290.293 239.99C291.699 235.97 291.789 231.249 291.417 226.952C291.134 223.577 288.711 223.133 286.425 225.73C284.425 227.963 283.069 230.745 281.069 232.978C279.997 234.185 278.077 235.614 276.818 235.4C275.628 235.184 274.449 233.024 274.001 231.504C273.433 229.702 273.741 227.665 273.523 225.743C273.198 222.736 273.169 219.637 272.279 216.8C270.424 210.925 264.534 209.708 260.916 214.623C258.635 217.737 256.843 221.621 256.094 225.387C252.986 241.514 256.269 257.304 259.114 273.748Z" fill="#ECE0D8"/>
<path d="M199.674 198.471C200.758 196.08 202.064 192.703 203.8 189.541C207.527 182.732 214.641 181.689 220.07 187.137C224.922 192.035 227.289 198.15 227.942 204.993C229.293 218.826 227.715 232.492 225.741 246.131C225.138 250.164 221.358 252.433 217.609 250.637C212.075 247.979 206.627 245.033 201.596 241.583C191.407 234.578 181.814 226.764 176.04 215.482C174.462 212.397 173.686 208.564 173.766 205.094C173.94 198.181 179.885 192.965 186.696 194.095C191.633 194.897 196.328 197.286 199.674 198.471ZM218.593 244.701C219.095 240.482 219.846 236.784 219.958 233.055C220.312 223.552 220.949 213.999 220.311 204.518C220.005 200.151 218.919 195.622 215.015 191.764C212.985 189.756 211.201 189.657 209.423 192.045C206.841 195.496 206.846 199.439 207.113 203.481C207.271 205.99 209.135 209.091 206.054 210.738C202.919 212.413 201.161 209.254 198.944 207.729C195.78 205.544 192.7 203.071 189.197 201.66C187.196 200.848 183.397 201.052 182.247 202.371C180.759 204.083 180.446 207.506 180.861 209.98C181.275 212.453 182.939 214.868 184.522 216.946C193.569 228.9 205.725 236.908 218.593 244.701Z" fill="#ECE0D8"/>
<path d="M255.255 152.855C257.495 151.252 259.171 149.819 261.023 148.774C267.126 145.306 272.642 147.108 275.71 153.429C278.823 159.898 278.348 166.387 275.172 172.618C270.18 182.436 263.146 190.669 254.611 197.609C252.523 199.301 250.959 199.67 248.324 197.058C238.503 187.43 232.914 175.597 229.301 162.756C228.146 158.61 228.318 153.913 228.815 149.558C229.385 144.575 232.379 140.865 237.626 139.699C243.225 138.479 247.665 140.591 250.909 145.016C252.624 147.334 253.727 150.054 255.255 152.855ZM250.872 191.896C259.157 184.435 266.446 176.479 270.427 166.14C271.321 163.783 271.353 160.859 270.936 158.317C269.963 152.411 266.641 151.143 261.719 154.555C260.538 155.372 259.459 156.376 258.448 157.377C254.273 161.523 252.483 161.288 249.445 156.163C247.782 153.367 246.315 150.36 244.164 148.003C240.371 143.843 235.037 145.23 234.295 150.722C233.769 154.643 234.14 158.939 235.176 162.804C238.103 173.563 244.807 182.364 250.872 191.896Z" fill="#ECE0D8"/>
</g>
<g clip-path="url(#clip1_672_1258)">
<path d="M55.938 156.813C71.0177 152.37 86.0739 147.905 101.203 143.598C102.25 143.293 103.921 143.98 104.859 144.733C127.14 162.837 152.025 166.854 178.942 157.671C183.417 156.144 187.461 153.185 190.894 148.89C195.435 143.234 194.402 135.97 188.634 131.547C183.593 127.676 177.687 126.468 171.593 125.885C158.094 124.64 144.777 126.556 131.565 128.927C123.191 130.427 114.922 132.428 106.35 134.232C105.029 130.531 106.197 125.658 109.016 123.147C114.338 118.363 117.855 117.001 123.106 114.558C139.585 106.888 157.24 103.495 175.245 102.708C188.646 102.12 202.073 102.495 215.49 102.457C216.659 102.447 217.855 102.551 218.953 102.473C220.67 102.356 221.868 101.748 222.103 100.32C222.569 98.9761 220.703 97.8824 219.657 97.3846C217.936 96.5621 215.996 96.0668 214.11 95.8911C184.391 92.8377 155.018 93.9029 126.673 104.503C120.455 106.836 114.517 110.147 108.908 113.724C100.867 118.884 96.6247 126.16 99.3212 136.29C85.1214 141.029 71.1259 145.693 56.8803 150.433C60.22 146.898 63.3816 143.551 66.5654 140.18C67.0998 139.615 67.7049 139.116 68.1921 138.506C69.5214 136.862 71.7426 135.125 69.6607 132.891C67.626 130.701 65.6654 132.729 64.3727 134.05C57.7732 140.706 51.2221 147.452 44.9526 154.419C42.3961 157.267 42.9654 160.347 46.5324 161.576C56.8196 165.228 67.323 168.415 77.8014 171.534C78.7731 171.828 80.922 171.583 81.5312 169.616C81.8535 168.048 80.2286 166.557 79.1614 166.129C72.7122 163.56 66.1334 161.27 59.5756 158.911C58.4167 158.485 57.2133 158.107 56.0322 157.705C53.9579 157.351 54.7554 157.168 55.938 156.813ZM110.441 141.799C109.526 141.068 111.836 140.842 112.178 140.763C130.065 136.653 148.037 133.115 166.49 133.553C171.424 133.665 176.521 134.644 181.199 136.253C187.408 138.416 188.11 143.763 182.763 147.677C179.303 150.206 175.284 152.431 171.165 153.58C153.691 158.527 131.989 155.108 120.45 148.578C116.066 146.042 115.076 145.107 110.441 141.799Z" fill="#ECE0D8"/>
</g>
</g>
<defs>
<filter id="filter0_d_672_1258" x="0" y="0.492188" width="364.567" height="367.798" filterUnits="userSpaceOnUse" color-interpolation-filters="sRGB">
<feFlood flood-opacity="0" result="BackgroundImageFix"/>
<feColorMatrix in="SourceAlpha" type="matrix" values="0 0 0 0 0 0 0 0 0 0 0 0 0 0 0 0 0 0 127 0" result="hardAlpha"/>
<feOffset dy="4"/>
<feGaussianBlur stdDeviation="2"/>
<feComposite in2="hardAlpha" operator="out"/>
<feColorMatrix type="matrix" values="0 0 0 0 0 0 0 0 0 0 0 0 0 0 0 0 0 0 0.25 0"/>
<feBlend mode="normal" in2="BackgroundImageFix" result="effect1_dropShadow_672_1258"/>
<feBlend mode="normal" in="SourceGraphic" in2="effect1_dropShadow_672_1258" result="shape"/>
</filter>
<filter id="filter1_d_672_1258" x="76.8772" y="25.6571" width="280.118" height="324.703" filterUnits="userSpaceOnUse" color-interpolation-filters="sRGB">
<feFlood flood-opacity="0" result="BackgroundImageFix"/>
<feColorMatrix in="SourceAlpha" type="matrix" values="0 0 0 0 0 0 0 0 0 0 0 0 0 0 0 0 0 0 127 0" result="hardAlpha"/>
<feOffset dx="-11.5543" dy="1.00472"/>
<feGaussianBlur stdDeviation="9.04247"/>
<feComposite in2="hardAlpha" operator="out"/>
<feColorMatrix type="matrix" values="0 0 0 0 0 0 0 0 0 0 0 0 0 0 0 0 0 0 0.5 0"/>
<feBlend mode="normal" in2="BackgroundImageFix" result="effect1_dropShadow_672_1258"/>
<feBlend mode="normal" in="SourceGraphic" in2="effect1_dropShadow_672_1258" result="shape"/>
</filter>
<clipPath id="clip0_672_1258">
<rect width="175" height="175" fill="white" transform="translate(123.134 178.828) rotate(-28.6123)"/>
</clipPath>
<clipPath id="clip1_672_1258">
<rect width="186.753" height="186.753" fill="white" transform="matrix(-0.686709 0.726932 0.726932 0.686709 132.245 0.492188)"/>
</clipPath>
</defs>
</svg>
