<svg viewBox="0 0 209 242" fill="none"
    xmlns="http://www.w3.org/2000/svg">
    <mask id="path-1-inside-1_680_1587" fill="white">
        <path fill-rule="evenodd" clip-rule="evenodd" d="M47.883 196.93L0.106344 184.129L13.7092 133.362C32.3993 138.369 51.61 127.277 56.618 108.587C61.626 89.8968 50.5351 70.6856 31.8455 65.6765L45.3806 15.163L93.1693 27.9679C93.2486 27.6338 93.3329 27.2997 93.4224 26.9657C98.4306 8.27481 117.643 -2.81721 136.333 2.19101C155.024 7.19923 166.116 26.4112 161.108 45.1021C161.019 45.436 160.925 45.7675 160.826 46.0966L208.623 58.9036L195.088 109.416C195.087 109.416 195.086 109.416 195.085 109.416C176.395 104.407 157.183 115.499 152.174 134.19C147.166 152.881 158.258 172.093 176.949 177.101C176.95 177.102 176.951 177.102 176.952 177.102L163.349 227.869L115.569 215.067C110.56 233.757 91.3485 244.848 72.658 239.84C53.9676 234.832 42.8756 215.621 47.883 196.93Z"/>
    </mask>
    <g filter="url(#filter0_i_680_1587)">
        <path fill-rule="evenodd" clip-rule="evenodd" d="M47.883 196.93L0.106344 184.129L13.7092 133.362C32.3993 138.369 51.61 127.277 56.618 108.587C61.626 89.8968 50.5351 70.6856 31.8455 65.6765L45.3806 15.163L93.1693 27.9679C93.2486 27.6338 93.3329 27.2997 93.4224 26.9657C98.4306 8.27481 117.643 -2.81721 136.333 2.19101C155.024 7.19923 166.116 26.4112 161.108 45.1021C161.019 45.436 160.925 45.7675 160.826 46.0966L208.623 58.9036L195.088 109.416C195.087 109.416 195.086 109.416 195.085 109.416C176.395 104.407 157.183 115.499 152.174 134.19C147.166 152.881 158.258 172.093 176.949 177.101C176.95 177.102 176.951 177.102 176.952 177.102L163.349 227.869L115.569 215.067C110.56 233.757 91.3485 244.848 72.658 239.84C53.9676 234.832 42.8756 215.621 47.883 196.93Z" fill="#9747FF"/>
    </g>
    <path d="M0.106344 184.129L-1.55262 183.684L-1.99713 185.343L-0.338173 185.788L0.106344 184.129ZM47.883 196.93L49.542 197.375L49.9864 195.716L48.3275 195.271L47.883 196.93ZM13.7092 133.362L14.1536 131.703L12.4947 131.259L12.0502 132.918L13.7092 133.362ZM31.8455 65.6765L30.1866 65.232L29.7421 66.8908L31.4009 67.3354L31.8455 65.6765ZM45.3806 15.163L45.8251 13.504L44.1661 13.0595L43.7216 14.7185L45.3806 15.163ZM93.1693 27.9679L92.7248 29.6269L94.4325 30.0845L94.8405 28.3642L93.1693 27.9679ZM160.826 46.0966L159.181 45.6042L158.674 47.2979L160.382 47.7555L160.826 46.0966ZM208.623 58.9036L210.282 59.3481L210.726 57.6892L209.067 57.2447L208.623 58.9036ZM195.088 109.416L194.643 111.075L196.302 111.52L196.747 109.861L195.088 109.416ZM176.952 177.102L178.611 177.547L179.055 175.888L177.396 175.443L176.952 177.102ZM163.349 227.869L162.904 229.528L164.563 229.973L165.008 228.314L163.349 227.869ZM115.569 215.067L116.013 213.408L114.354 212.963L113.91 214.622L115.569 215.067ZM-0.338173 185.788L47.4385 198.589L48.3275 195.271L0.550862 182.47L-0.338173 185.788ZM12.0502 132.918L-1.55262 183.684L1.76531 184.573L15.3681 133.807L12.0502 132.918ZM54.959 108.142C50.1965 125.916 31.9276 136.465 14.1536 131.703L13.2647 135.021C32.8711 140.273 53.0234 128.638 58.2769 109.031L54.959 108.142ZM31.4009 67.3354C49.1743 72.099 59.7215 90.3684 54.959 108.142L58.2769 109.031C63.5304 89.4251 51.8958 69.2722 32.2901 64.0175L31.4009 67.3354ZM43.7216 14.7185L30.1866 65.232L33.5045 66.121L47.0395 15.6075L43.7216 14.7185ZM93.6138 26.309L45.8251 13.504L44.9361 16.8219L92.7248 29.6269L93.6138 26.309ZM91.7634 26.5212C91.6697 26.8711 91.5813 27.2213 91.4982 27.5717L94.8405 28.3642C94.9159 28.0462 94.9962 27.7282 95.0813 27.4102L91.7634 26.5212ZM136.778 0.532048C117.171 -4.72167 97.0171 6.91407 91.7634 26.5212L95.0813 27.4102C99.8441 9.63556 118.114 -0.912748 135.889 3.84997L136.778 0.532048ZM162.767 45.5466C168.021 25.9395 156.385 5.78577 136.778 0.532048L135.889 3.84997C153.664 8.61269 164.212 26.8829 159.449 44.6576L162.767 45.5466ZM162.472 46.5889C162.575 46.244 162.673 45.8966 162.767 45.5466L159.449 44.6576C159.364 44.9755 159.275 45.291 159.181 45.6042L162.472 46.5889ZM209.067 57.2447L161.271 44.4376L160.382 47.7555L208.178 60.5626L209.067 57.2447ZM196.747 109.861L210.282 59.3481L206.964 58.4591L193.429 108.972L196.747 109.861ZM194.641 111.075C194.641 111.075 194.642 111.075 194.642 111.075C194.643 111.075 194.643 111.075 194.643 111.075L195.533 107.757C195.532 107.757 195.532 107.757 195.531 107.757C195.531 107.757 195.531 107.757 195.53 107.757L194.641 111.075ZM153.833 134.635C158.596 116.86 176.866 106.312 194.641 111.075L195.53 107.757C175.923 102.503 155.769 114.139 150.515 133.746L153.833 134.635ZM177.394 175.442C159.619 170.68 149.071 152.41 153.833 134.635L150.515 133.746C145.262 153.353 156.897 173.507 176.505 178.76L177.394 175.442ZM177.396 175.443C177.396 175.443 177.395 175.443 177.395 175.443C177.394 175.443 177.394 175.443 177.394 175.442L176.505 178.76C176.505 178.76 176.505 178.761 176.506 178.761C176.506 178.761 176.507 178.761 176.507 178.761L177.396 175.443ZM165.008 228.314L178.611 177.547L175.293 176.658L161.69 227.425L165.008 228.314ZM115.124 216.726L162.904 229.528L163.793 226.21L116.013 213.408L115.124 216.726ZM72.2135 241.499C91.8202 246.753 111.973 235.118 117.228 215.511L113.91 214.622C109.147 232.396 90.8769 242.944 73.1026 238.181L72.2135 241.499ZM46.224 196.486C40.9712 216.093 52.6068 236.246 72.2135 241.499L73.1026 238.181C55.3283 233.419 44.7801 215.149 49.542 197.375L46.224 196.486Z" fill="#131313" mask="url(#path-1-inside-1_680_1587)"/>
    <defs>
        <filter id="filter0_i_680_1587" x="0.106445" y="0.988281" width="208.517" height="240.054" filterUnits="userSpaceOnUse" color-interpolation-filters="sRGB">
            <feFlood flood-opacity="0" result="BackgroundImageFix"/>
            <feBlend mode="normal" in="SourceGraphic" in2="BackgroundImageFix" result="shape"/>
            <feColorMatrix in="SourceAlpha" type="matrix" values="0 0 0 0 0 0 0 0 0 0 0 0 0 0 0 0 0 0 127 0" result="hardAlpha"/>
            <feOffset dx="17.5183"/>
            <feComposite in2="hardAlpha" operator="arithmetic" k2="-1" k3="1"/>
            <feColorMatrix type="matrix" values="0 0 0 0 0.0745098 0 0 0 0 0.0745098 0 0 0 0 0.0745098 0 0 0 1 0"/>
            <feBlend mode="normal" in2="shape" result="effect1_innerShadow_680_1587"/>
        </filter>
    </defs>
</svg>
