<svg width="1em" height="1em" viewBox="0 0 59 59" fill="none" xmlns="http://www.w3.org/2000/svg">
<g opacity="0.5">
<path d="M29.7237 0.143066C13.6727 0.143066 0.660156 13.1543 0.660156 29.2066C0.660156 45.2589 13.6727 58.2702 29.7237 58.2702C45.7747 58.2702 58.7873 45.2589 58.7873 29.2066C58.7873 13.1543 45.7747 0.143066 29.7237 0.143066ZM43.9032 42.0399C43.4364 42.8665 42.5778 43.3315 41.6926 43.3315C41.2787 43.3315 40.8515 43.228 40.4596 43.01C36.8311 40.9756 32.8767 39.7294 28.6977 39.3062C24.5099 38.8865 20.3749 39.3115 16.4029 40.5797C15.0774 41.0029 13.6507 40.2706 13.228 38.9429C12.8008 37.613 13.5362 36.1911 14.8661 35.7657C19.4986 34.2857 24.3293 33.7824 29.2085 34.2782C34.0788 34.7741 38.6938 36.2272 42.93 38.6016C44.1498 39.2807 44.5857 40.821 43.9032 42.0399ZM47.382 33.2121C46.9328 34.0765 46.0521 34.5724 45.1406 34.5724C44.7443 34.5724 44.348 34.4817 43.9737 34.2857C39.5128 31.9624 34.6953 30.5237 29.6444 30.0112C24.5539 29.4902 19.5118 29.9442 14.6503 31.3463C13.3072 31.7277 11.9069 30.9597 11.5238 29.617C11.1363 28.2766 11.9113 26.8762 13.2499 26.4892C18.7368 24.907 24.4262 24.4001 30.1553 24.9814C35.8447 25.5609 41.2787 27.1814 46.312 29.8042C47.545 30.4493 48.0293 31.9747 47.382 33.2121ZM48.6414 25.8678C48.2627 25.8678 47.8796 25.7824 47.5141 25.6027C42.221 22.9632 36.5272 21.3194 30.5868 20.7165C24.6376 20.108 18.7192 20.5783 12.9901 22.1081C11.6427 22.4656 10.2599 21.6664 9.89884 20.3167C9.53774 18.9688 10.3392 17.583 11.6911 17.2232C18.0102 15.5357 24.5451 15.0218 31.102 15.6885C37.6501 16.3513 43.9296 18.166 49.7688 21.0781C51.0194 21.7007 51.5258 23.2195 50.9049 24.4675C50.4645 25.3557 49.5706 25.8678 48.6414 25.8678Z" fill="#ECE0D8"/>
</g>
</svg>
