<?xml version="1.0" standalone="no"?>
<!DOCTYPE svg PUBLIC "-//W3C//DTD SVG 20010904//EN"
 "http://www.w3.org/TR/2001/REC-SVG-20010904/DTD/svg10.dtd">
<svg version="1.0" xmlns="http://www.w3.org/2000/svg"
 width="1488.000000pt" height="1488.000000pt" viewBox="0 0 1488.000000 1488.000000"
 preserveAspectRatio="xMidYMid meet">
<metadata>
Created by potrace 1.14, written by Peter Selinger 2001-2017
</metadata>
<g transform="translate(0.000000,1488.000000) scale(0.100000,-0.100000)"
fill="#000000" stroke="none">
<path d="M7108 14875 c-2 -2 -55 -6 -118 -9 -63 -3 -135 -8 -160 -10 -25 -3
-74 -7 -110 -11 -131 -12 -347 -39 -470 -60 -47 -8 -103 -17 -125 -21 -49 -7
-196 -37 -325 -66 -52 -12 -97 -22 -100 -23 -89 -17 -424 -113 -606 -173 -338
-112 -675 -253 -997 -416 -110 -56 -206 -106 -215 -111 -10 -6 -44 -25 -77
-43 -184 -99 -525 -316 -718 -457 -78 -57 -409 -315 -417 -324 -3 -4 -21 -19
-40 -35 -165 -134 -488 -446 -680 -655 -52 -57 -100 -109 -105 -115 -10 -11
-95 -112 -127 -151 -9 -11 -43 -52 -75 -91 -32 -39 -67 -83 -78 -98 -11 -15
-47 -63 -80 -106 -33 -43 -76 -102 -95 -130 -19 -28 -40 -56 -46 -63 -5 -7
-51 -75 -102 -152 -51 -77 -96 -145 -100 -150 -5 -6 -11 -15 -13 -21 -2 -5
-41 -71 -86 -146 -46 -75 -83 -141 -83 -147 0 -6 -3 -11 -7 -11 -5 0 -13 -10
-19 -23 -6 -12 -56 -110 -112 -217 -137 -265 -249 -520 -367 -835 -54 -142
-176 -523 -189 -588 -3 -12 -14 -56 -26 -97 -32 -112 -97 -409 -126 -577 -14
-81 -27 -159 -30 -173 -2 -14 -6 -45 -9 -70 -3 -25 -7 -54 -9 -65 -2 -11 -7
-51 -11 -90 -4 -38 -9 -78 -11 -88 -4 -26 -13 -119 -19 -202 -3 -38 -8 -119
-12 -180 -10 -140 -10 -759 0 -887 4 -53 10 -125 12 -160 10 -124 31 -315 51
-458 12 -80 55 -334 59 -339 1 -3 6 -31 10 -61 4 -30 9 -58 11 -61 3 -6 41
-170 50 -219 3 -14 12 -50 20 -80 8 -30 23 -86 34 -125 85 -325 218 -698 370
-1044 66 -151 213 -449 278 -566 16 -27 41 -72 56 -100 51 -91 109 -189 148
-250 21 -33 42 -67 48 -75 21 -33 175 -266 182 -275 4 -5 61 -82 127 -170 156
-208 273 -357 311 -395 3 -3 39 -43 80 -90 232 -264 509 -535 770 -755 52 -44
97 -82 100 -85 34 -37 363 -282 550 -409 313 -212 758 -462 1060 -596 47 -21
112 -50 145 -65 124 -56 360 -147 560 -216 93 -32 484 -149 530 -159 11 -2 74
-17 140 -33 109 -27 328 -73 415 -87 19 -3 62 -10 95 -16 33 -6 74 -13 90 -14
17 -2 80 -11 140 -19 61 -8 133 -17 160 -20 28 -2 66 -7 85 -10 122 -19 388
-30 735 -30 383 -1 548 7 835 40 517 58 1039 172 1495 325 66 23 125 42 130
43 6 2 17 6 25 9 8 3 40 14 70 25 70 25 285 109 325 127 17 7 50 22 75 33 123
53 190 84 362 169 102 51 229 117 282 148 53 30 98 55 100 55 11 0 257 153
414 257 154 102 448 316 542 395 19 16 40 32 45 36 11 8 204 171 221 187 6 5
53 48 105 95 106 97 343 332 438 435 35 39 82 90 105 115 23 25 64 72 91 105
28 33 55 65 60 71 6 6 24 28 40 49 17 21 35 43 40 49 29 32 173 221 256 336
21 30 43 60 48 66 4 5 55 82 113 170 249 377 465 778 628 1164 33 80 65 154
70 165 48 106 203 560 245 720 9 33 18 67 20 75 44 151 129 528 150 660 3 19
7 46 10 60 3 14 7 40 10 58 3 17 7 44 9 60 3 15 7 47 11 72 5 41 11 84 20 150
6 44 23 211 30 295 27 331 27 891 0 1225 -15 188 -42 408 -70 580 -8 47 -17
103 -20 125 -4 22 -8 47 -10 55 -2 8 -7 29 -10 47 -11 64 -57 272 -91 408 -99
398 -234 789 -405 1178 -56 126 -225 471 -264 537 -8 14 -33 59 -56 100 -83
149 -93 166 -135 233 -24 37 -44 69 -44 71 0 4 -197 302 -212 321 -6 8 -205
274 -273 365 -20 26 -130 160 -160 194 -5 6 -28 31 -49 56 -169 193 -421 452
-595 610 -52 47 -99 90 -105 95 -6 6 -54 46 -106 90 -52 44 -97 82 -100 85
-17 17 -124 100 -245 190 -77 57 -156 115 -175 130 -296 221 -906 566 -1300
734 -63 27 -137 59 -165 71 -27 12 -102 41 -165 65 -63 23 -142 52 -175 65
-106 41 -501 161 -625 191 -8 2 -80 19 -160 38 -136 33 -492 102 -570 111 -19
2 -82 10 -140 19 -92 13 -134 17 -265 31 -16 2 -73 7 -125 11 -52 4 -113 9
-135 11 -49 5 -792 12 -797 8z"/>
</g>
</svg>
